<mxfile host="65bd71144e" pages="7">
    <diagram name="Overview" id="9f46799a-70d6-7492-0946-bef42562c5a5">
        <mxGraphModel dx="451" dy="630" grid="1" gridSize="10" guides="1" tooltips="1" connect="1" arrows="1" fold="1" page="1" pageScale="1" pageWidth="1100" pageHeight="850" background="none" math="0" shadow="0">
            <root>
                <mxCell id="0"/>
                <mxCell id="1" parent="0"/>
                <mxCell id="i_xe7NnG-zcU_OgoNs8J-28" value="Application Overview" style="shape=umlFrame;whiteSpace=wrap;html=1;width=140;height=34;" parent="1" vertex="1">
                    <mxGeometry x="60" y="6" width="1480" height="754" as="geometry"/>
                </mxCell>
                <mxCell id="Fk-Rqy4l4lS2lBV10XE7-1" value="AppComponent*" style="swimlane;fontStyle=1;align=center;verticalAlign=top;childLayout=stackLayout;horizontal=1;startSize=26;horizontalStack=0;resizeParent=1;resizeParentMax=0;resizeLast=0;collapsible=1;marginBottom=0;" parent="1" vertex="1">
                    <mxGeometry x="175" y="350" width="160" height="86" as="geometry"/>
                </mxCell>
                <mxCell id="Fk-Rqy4l4lS2lBV10XE7-2" value="+ field: type" style="text;strokeColor=none;fillColor=none;align=left;verticalAlign=top;spacingLeft=4;spacingRight=4;overflow=hidden;rotatable=0;points=[[0,0.5],[1,0.5]];portConstraint=eastwest;" parent="Fk-Rqy4l4lS2lBV10XE7-1" vertex="1">
                    <mxGeometry y="26" width="160" height="26" as="geometry"/>
                </mxCell>
                <mxCell id="Fk-Rqy4l4lS2lBV10XE7-3" value="" style="line;strokeWidth=1;fillColor=none;align=left;verticalAlign=middle;spacingTop=-1;spacingLeft=3;spacingRight=3;rotatable=0;labelPosition=right;points=[];portConstraint=eastwest;" parent="Fk-Rqy4l4lS2lBV10XE7-1" vertex="1">
                    <mxGeometry y="52" width="160" height="8" as="geometry"/>
                </mxCell>
                <mxCell id="Fk-Rqy4l4lS2lBV10XE7-4" value="+ method(type): type" style="text;strokeColor=none;fillColor=none;align=left;verticalAlign=top;spacingLeft=4;spacingRight=4;overflow=hidden;rotatable=0;points=[[0,0.5],[1,0.5]];portConstraint=eastwest;" parent="Fk-Rqy4l4lS2lBV10XE7-1" vertex="1">
                    <mxGeometry y="60" width="160" height="26" as="geometry"/>
                </mxCell>
                <mxCell id="Fk-Rqy4l4lS2lBV10XE7-5" value="NavComponent*" style="swimlane;fontStyle=1;align=center;verticalAlign=top;childLayout=stackLayout;horizontal=1;startSize=26;horizontalStack=0;resizeParent=1;resizeParentMax=0;resizeLast=0;collapsible=1;marginBottom=0;" parent="1" vertex="1">
                    <mxGeometry x="570" y="120" width="160" height="60" as="geometry"/>
                </mxCell>
                <mxCell id="Fk-Rqy4l4lS2lBV10XE7-7" value="" style="line;strokeWidth=1;fillColor=none;align=left;verticalAlign=middle;spacingTop=-1;spacingLeft=3;spacingRight=3;rotatable=0;labelPosition=right;points=[];portConstraint=eastwest;" parent="Fk-Rqy4l4lS2lBV10XE7-5" vertex="1">
                    <mxGeometry y="26" width="160" height="8" as="geometry"/>
                </mxCell>
                <mxCell id="Fk-Rqy4l4lS2lBV10XE7-8" value="+ logOut()" style="text;strokeColor=none;fillColor=none;align=left;verticalAlign=top;spacingLeft=4;spacingRight=4;overflow=hidden;rotatable=0;points=[[0,0.5],[1,0.5]];portConstraint=eastwest;" parent="Fk-Rqy4l4lS2lBV10XE7-5" vertex="1">
                    <mxGeometry y="34" width="160" height="26" as="geometry"/>
                </mxCell>
                <mxCell id="Fk-Rqy4l4lS2lBV10XE7-9" value="SignInComponent*" style="swimlane;fontStyle=1;align=center;verticalAlign=top;childLayout=stackLayout;horizontal=1;startSize=26;horizontalStack=0;resizeParent=1;resizeParentMax=0;resizeLast=0;collapsible=1;marginBottom=0;" parent="1" vertex="1">
                    <mxGeometry x="570" y="240" width="160" height="60" as="geometry"/>
                </mxCell>
                <mxCell id="Fk-Rqy4l4lS2lBV10XE7-11" value="" style="line;strokeWidth=1;fillColor=none;align=left;verticalAlign=middle;spacingTop=-1;spacingLeft=3;spacingRight=3;rotatable=0;labelPosition=right;points=[];portConstraint=eastwest;" parent="Fk-Rqy4l4lS2lBV10XE7-9" vertex="1">
                    <mxGeometry y="26" width="160" height="8" as="geometry"/>
                </mxCell>
                <mxCell id="Fk-Rqy4l4lS2lBV10XE7-12" value="+ signIn(User): User" style="text;strokeColor=none;fillColor=none;align=left;verticalAlign=top;spacingLeft=4;spacingRight=4;overflow=hidden;rotatable=0;points=[[0,0.5],[1,0.5]];portConstraint=eastwest;" parent="Fk-Rqy4l4lS2lBV10XE7-9" vertex="1">
                    <mxGeometry y="34" width="160" height="26" as="geometry"/>
                </mxCell>
                <mxCell id="Fk-Rqy4l4lS2lBV10XE7-13" value="SignUpComponent*" style="swimlane;fontStyle=1;align=center;verticalAlign=top;childLayout=stackLayout;horizontal=1;startSize=26;horizontalStack=0;resizeParent=1;resizeParentMax=0;resizeLast=0;collapsible=1;marginBottom=0;" parent="1" vertex="1">
                    <mxGeometry x="570" y="350" width="160" height="60" as="geometry"/>
                </mxCell>
                <mxCell id="Fk-Rqy4l4lS2lBV10XE7-15" value="" style="line;strokeWidth=1;fillColor=none;align=left;verticalAlign=middle;spacingTop=-1;spacingLeft=3;spacingRight=3;rotatable=0;labelPosition=right;points=[];portConstraint=eastwest;" parent="Fk-Rqy4l4lS2lBV10XE7-13" vertex="1">
                    <mxGeometry y="26" width="160" height="8" as="geometry"/>
                </mxCell>
                <mxCell id="Fk-Rqy4l4lS2lBV10XE7-16" value="+ signUp(User): User" style="text;strokeColor=none;fillColor=none;align=left;verticalAlign=top;spacingLeft=4;spacingRight=4;overflow=hidden;rotatable=0;points=[[0,0.5],[1,0.5]];portConstraint=eastwest;" parent="Fk-Rqy4l4lS2lBV10XE7-13" vertex="1">
                    <mxGeometry y="34" width="160" height="26" as="geometry"/>
                </mxCell>
                <mxCell id="Fk-Rqy4l4lS2lBV10XE7-18" value="HomeComponent*" style="swimlane;fontStyle=1;align=center;verticalAlign=top;childLayout=stackLayout;horizontal=1;startSize=26;horizontalStack=0;resizeParent=1;resizeParentMax=0;resizeLast=0;collapsible=1;marginBottom=0;" parent="1" vertex="1">
                    <mxGeometry x="570" y="490" width="160" height="34" as="geometry"/>
                </mxCell>
                <mxCell id="Fk-Rqy4l4lS2lBV10XE7-20" value="" style="line;strokeWidth=1;fillColor=none;align=left;verticalAlign=middle;spacingTop=-1;spacingLeft=3;spacingRight=3;rotatable=0;labelPosition=right;points=[];portConstraint=eastwest;" parent="Fk-Rqy4l4lS2lBV10XE7-18" vertex="1">
                    <mxGeometry y="26" width="160" height="8" as="geometry"/>
                </mxCell>
                <mxCell id="Fk-Rqy4l4lS2lBV10XE7-22" value="SettingsComponent*" style="swimlane;fontStyle=1;align=center;verticalAlign=top;childLayout=stackLayout;horizontal=1;startSize=26;horizontalStack=0;resizeParent=1;resizeParentMax=0;resizeLast=0;collapsible=1;marginBottom=0;" parent="1" vertex="1">
                    <mxGeometry x="560" y="620" width="190" height="60" as="geometry"/>
                </mxCell>
                <mxCell id="Fk-Rqy4l4lS2lBV10XE7-24" value="" style="line;strokeWidth=1;fillColor=none;align=left;verticalAlign=middle;spacingTop=-1;spacingLeft=3;spacingRight=3;rotatable=0;labelPosition=right;points=[];portConstraint=eastwest;" parent="Fk-Rqy4l4lS2lBV10XE7-22" vertex="1">
                    <mxGeometry y="26" width="190" height="8" as="geometry"/>
                </mxCell>
                <mxCell id="Fk-Rqy4l4lS2lBV10XE7-25" value="+ updateSettings(User): boolean" style="text;strokeColor=none;fillColor=none;align=left;verticalAlign=top;spacingLeft=4;spacingRight=4;overflow=hidden;rotatable=0;points=[[0,0.5],[1,0.5]];portConstraint=eastwest;" parent="Fk-Rqy4l4lS2lBV10XE7-22" vertex="1">
                    <mxGeometry y="34" width="190" height="26" as="geometry"/>
                </mxCell>
                <mxCell id="Fk-Rqy4l4lS2lBV10XE7-42" value="User" style="swimlane;fontStyle=1;align=center;verticalAlign=top;childLayout=stackLayout;horizontal=1;startSize=26;horizontalStack=0;resizeParent=1;resizeParentMax=0;resizeLast=0;collapsible=1;marginBottom=0;" parent="1" vertex="1">
                    <mxGeometry x="870" y="20" width="160" height="128" as="geometry"/>
                </mxCell>
                <mxCell id="Fk-Rqy4l4lS2lBV10XE7-43" value="- id: Long&#10;- firstName: String&#10;- lastName: String&#10;- email: String&#10;- course: String&#10;- pwHash: String" style="text;strokeColor=none;fillColor=none;align=left;verticalAlign=top;spacingLeft=4;spacingRight=4;overflow=hidden;rotatable=0;points=[[0,0.5],[1,0.5]];portConstraint=eastwest;" parent="Fk-Rqy4l4lS2lBV10XE7-42" vertex="1">
                    <mxGeometry y="26" width="160" height="94" as="geometry"/>
                </mxCell>
                <mxCell id="Fk-Rqy4l4lS2lBV10XE7-44" value="" style="line;strokeWidth=1;fillColor=none;align=left;verticalAlign=middle;spacingTop=-1;spacingLeft=3;spacingRight=3;rotatable=0;labelPosition=right;points=[];portConstraint=eastwest;" parent="Fk-Rqy4l4lS2lBV10XE7-42" vertex="1">
                    <mxGeometry y="120" width="160" height="8" as="geometry"/>
                </mxCell>
                <mxCell id="i_xe7NnG-zcU_OgoNs8J-1" value="Canteen&#10;Module" style="shape=module;align=left;spacingLeft=20;align=center;verticalAlign=top;" parent="1" vertex="1">
                    <mxGeometry x="1080" y="540" width="160" height="90" as="geometry"/>
                </mxCell>
                <mxCell id="i_xe7NnG-zcU_OgoNs8J-3" value="" style="endArrow=diamondThin;endFill=1;endSize=24;html=1;rounded=0;entryX=0;entryY=0.5;entryDx=0;entryDy=0;exitX=1;exitY=0.5;exitDx=0;exitDy=0;" parent="1" source="Fk-Rqy4l4lS2lBV10XE7-2" edge="1">
                    <mxGeometry width="160" relative="1" as="geometry">
                        <mxPoint x="300" y="206" as="sourcePoint"/>
                        <mxPoint x="570" y="159" as="targetPoint"/>
                    </mxGeometry>
                </mxCell>
                <mxCell id="i_xe7NnG-zcU_OgoNs8J-4" value="" style="endArrow=diamondThin;endFill=1;endSize=24;html=1;rounded=0;exitX=1;exitY=0.5;exitDx=0;exitDy=0;entryX=0;entryY=0.5;entryDx=0;entryDy=0;" parent="1" source="Fk-Rqy4l4lS2lBV10XE7-2" edge="1">
                    <mxGeometry width="160" relative="1" as="geometry">
                        <mxPoint x="350" y="410" as="sourcePoint"/>
                        <mxPoint x="570" y="279" as="targetPoint"/>
                    </mxGeometry>
                </mxCell>
                <mxCell id="i_xe7NnG-zcU_OgoNs8J-5" value="" style="endArrow=diamondThin;endFill=1;endSize=24;html=1;rounded=0;exitX=1;exitY=0.5;exitDx=0;exitDy=0;entryX=0;entryY=0.5;entryDx=0;entryDy=0;" parent="1" source="Fk-Rqy4l4lS2lBV10XE7-2" edge="1">
                    <mxGeometry width="160" relative="1" as="geometry">
                        <mxPoint x="330" y="420" as="sourcePoint"/>
                        <mxPoint x="570" y="389" as="targetPoint"/>
                    </mxGeometry>
                </mxCell>
                <mxCell id="i_xe7NnG-zcU_OgoNs8J-6" value="" style="endArrow=diamondThin;endFill=1;endSize=24;html=1;rounded=0;exitX=1;exitY=0.5;exitDx=0;exitDy=0;entryX=0;entryY=0.25;entryDx=0;entryDy=0;" parent="1" source="Fk-Rqy4l4lS2lBV10XE7-2" target="Fk-Rqy4l4lS2lBV10XE7-18" edge="1">
                    <mxGeometry width="160" relative="1" as="geometry">
                        <mxPoint x="390" y="500" as="sourcePoint"/>
                        <mxPoint x="550" y="500" as="targetPoint"/>
                    </mxGeometry>
                </mxCell>
                <mxCell id="i_xe7NnG-zcU_OgoNs8J-7" value="" style="endArrow=diamondThin;endFill=1;endSize=24;html=1;rounded=0;exitX=1;exitY=0.5;exitDx=0;exitDy=0;entryX=0;entryY=0.25;entryDx=0;entryDy=0;" parent="1" source="Fk-Rqy4l4lS2lBV10XE7-2" target="Fk-Rqy4l4lS2lBV10XE7-22" edge="1">
                    <mxGeometry width="160" relative="1" as="geometry">
                        <mxPoint x="360" y="580" as="sourcePoint"/>
                        <mxPoint x="570" y="635" as="targetPoint"/>
                    </mxGeometry>
                </mxCell>
                <mxCell id="i_xe7NnG-zcU_OgoNs8J-8" value="Use" style="endArrow=open;endSize=12;dashed=1;html=1;rounded=0;exitX=1;exitY=0.5;exitDx=0;exitDy=0;entryX=0;entryY=0.5;entryDx=0;entryDy=0;" parent="1" target="Fk-Rqy4l4lS2lBV10XE7-43" edge="1">
                    <mxGeometry width="160" relative="1" as="geometry">
                        <mxPoint x="730" y="159" as="sourcePoint"/>
                        <mxPoint x="1040" y="370" as="targetPoint"/>
                    </mxGeometry>
                </mxCell>
                <mxCell id="i_xe7NnG-zcU_OgoNs8J-9" value="Use" style="endArrow=open;endSize=12;dashed=1;html=1;rounded=0;exitX=1;exitY=0.5;exitDx=0;exitDy=0;entryX=0;entryY=0.5;entryDx=0;entryDy=0;" parent="1" target="Fk-Rqy4l4lS2lBV10XE7-43" edge="1">
                    <mxGeometry width="160" relative="1" as="geometry">
                        <mxPoint x="730" y="279" as="sourcePoint"/>
                        <mxPoint x="1070" y="330" as="targetPoint"/>
                    </mxGeometry>
                </mxCell>
                <mxCell id="i_xe7NnG-zcU_OgoNs8J-10" value="Use" style="endArrow=open;endSize=12;dashed=1;html=1;rounded=0;exitX=1;exitY=0.5;exitDx=0;exitDy=0;entryX=0;entryY=0.5;entryDx=0;entryDy=0;" parent="1" target="Fk-Rqy4l4lS2lBV10XE7-43" edge="1">
                    <mxGeometry width="160" relative="1" as="geometry">
                        <mxPoint x="730" y="389" as="sourcePoint"/>
                        <mxPoint x="930" y="390" as="targetPoint"/>
                    </mxGeometry>
                </mxCell>
                <mxCell id="i_xe7NnG-zcU_OgoNs8J-12" value="Use" style="endArrow=open;endSize=12;dashed=1;html=1;rounded=0;exitX=1;exitY=0.25;exitDx=0;exitDy=0;entryX=0;entryY=0.5;entryDx=0;entryDy=0;" parent="1" source="Fk-Rqy4l4lS2lBV10XE7-22" target="Fk-Rqy4l4lS2lBV10XE7-43" edge="1">
                    <mxGeometry width="160" relative="1" as="geometry">
                        <mxPoint x="730" y="635" as="sourcePoint"/>
                        <mxPoint x="1010" y="630" as="targetPoint"/>
                    </mxGeometry>
                </mxCell>
                <mxCell id="i_xe7NnG-zcU_OgoNs8J-13" value="" style="endArrow=diamondThin;endFill=1;endSize=24;html=1;rounded=0;exitX=1;exitY=0.5;exitDx=0;exitDy=0;entryX=0;entryY=0.5;entryDx=10;entryDy=0;entryPerimeter=0;" parent="1" target="i_xe7NnG-zcU_OgoNs8J-14" edge="1">
                    <mxGeometry width="160" relative="1" as="geometry">
                        <mxPoint x="730" y="509" as="sourcePoint"/>
                        <mxPoint x="1060" y="511" as="targetPoint"/>
                    </mxGeometry>
                </mxCell>
                <mxCell id="i_xe7NnG-zcU_OgoNs8J-14" value="Calendar&#10;Module" style="shape=module;align=left;spacingLeft=20;align=center;verticalAlign=top;" parent="1" vertex="1">
                    <mxGeometry x="1080" y="436" width="160" height="90" as="geometry"/>
                </mxCell>
                <mxCell id="i_xe7NnG-zcU_OgoNs8J-15" value="" style="endArrow=diamondThin;endFill=1;endSize=24;html=1;rounded=0;exitX=1;exitY=0.5;exitDx=0;exitDy=0;entryX=0;entryY=0.5;entryDx=10;entryDy=0;entryPerimeter=0;" parent="1" target="i_xe7NnG-zcU_OgoNs8J-1" edge="1">
                    <mxGeometry width="160" relative="1" as="geometry">
                        <mxPoint x="730" y="509" as="sourcePoint"/>
                        <mxPoint x="1020" y="650" as="targetPoint"/>
                    </mxGeometry>
                </mxCell>
                <mxCell id="i_xe7NnG-zcU_OgoNs8J-16" value="Use" style="endArrow=open;endSize=12;dashed=1;html=1;rounded=0;exitX=1;exitY=0.5;exitDx=0;exitDy=0;entryX=0;entryY=0.5;entryDx=10;entryDy=0;entryPerimeter=0;" parent="1" source="i_xe7NnG-zcU_OgoNs8J-14" target="i_xe7NnG-zcU_OgoNs8J-26" edge="1">
                    <mxGeometry width="160" relative="1" as="geometry">
                        <mxPoint x="1280" y="480" as="sourcePoint"/>
                        <mxPoint x="1440" y="480" as="targetPoint"/>
                    </mxGeometry>
                </mxCell>
                <mxCell id="i_xe7NnG-zcU_OgoNs8J-17" value="Use" style="endArrow=open;endSize=12;dashed=1;html=1;rounded=0;exitX=1;exitY=0.5;exitDx=0;exitDy=0;entryX=0;entryY=0.5;entryDx=10;entryDy=0;entryPerimeter=0;" parent="1" source="i_xe7NnG-zcU_OgoNs8J-1" target="i_xe7NnG-zcU_OgoNs8J-27" edge="1">
                    <mxGeometry width="160" relative="1" as="geometry">
                        <mxPoint x="1240" y="585" as="sourcePoint"/>
                        <mxPoint x="1350" y="585" as="targetPoint"/>
                    </mxGeometry>
                </mxCell>
                <mxCell id="i_xe7NnG-zcU_OgoNs8J-18" value="Use" style="endArrow=open;endSize=12;dashed=1;html=1;rounded=0;exitX=1;exitY=0.5;exitDx=0;exitDy=0;entryX=0;entryY=0.5;entryDx=10;entryDy=0;entryPerimeter=0;" parent="1" source="Fk-Rqy4l4lS2lBV10XE7-12" target="i_xe7NnG-zcU_OgoNs8J-25" edge="1">
                    <mxGeometry width="160" relative="1" as="geometry">
                        <mxPoint x="1000" y="280" as="sourcePoint"/>
                        <mxPoint x="1160" y="280" as="targetPoint"/>
                    </mxGeometry>
                </mxCell>
                <mxCell id="i_xe7NnG-zcU_OgoNs8J-20" value="Use" style="endArrow=open;endSize=12;dashed=1;html=1;rounded=0;exitX=1;exitY=0.5;exitDx=0;exitDy=0;entryX=0;entryY=0.5;entryDx=10;entryDy=0;entryPerimeter=0;" parent="1" source="Fk-Rqy4l4lS2lBV10XE7-16" target="i_xe7NnG-zcU_OgoNs8J-25" edge="1">
                    <mxGeometry width="160" relative="1" as="geometry">
                        <mxPoint x="940" y="390" as="sourcePoint"/>
                        <mxPoint x="1160" y="280" as="targetPoint"/>
                    </mxGeometry>
                </mxCell>
                <mxCell id="i_xe7NnG-zcU_OgoNs8J-22" value="Use" style="endArrow=open;endSize=12;dashed=1;html=1;rounded=0;exitX=1;exitY=0.5;exitDx=0;exitDy=0;entryX=0;entryY=0.5;entryDx=10;entryDy=0;entryPerimeter=0;" parent="1" source="Fk-Rqy4l4lS2lBV10XE7-8" target="i_xe7NnG-zcU_OgoNs8J-25" edge="1">
                    <mxGeometry width="160" relative="1" as="geometry">
                        <mxPoint x="810" y="170" as="sourcePoint"/>
                        <mxPoint x="1160" y="280" as="targetPoint"/>
                    </mxGeometry>
                </mxCell>
                <mxCell id="i_xe7NnG-zcU_OgoNs8J-23" value="Use" style="endArrow=open;endSize=12;dashed=1;html=1;rounded=0;exitX=1;exitY=0.5;exitDx=0;exitDy=0;entryX=0;entryY=0.5;entryDx=10;entryDy=0;entryPerimeter=0;" parent="1" source="Fk-Rqy4l4lS2lBV10XE7-25" target="i_xe7NnG-zcU_OgoNs8J-25" edge="1">
                    <mxGeometry width="160" relative="1" as="geometry">
                        <mxPoint x="780" y="660" as="sourcePoint"/>
                        <mxPoint x="940" y="660" as="targetPoint"/>
                        <Array as="points">
                            <mxPoint x="840" y="669"/>
                            <mxPoint x="840" y="470"/>
                        </Array>
                    </mxGeometry>
                </mxCell>
                <mxCell id="i_xe7NnG-zcU_OgoNs8J-25" value="User&#10;Microservice" style="shape=module;align=left;spacingLeft=20;align=center;verticalAlign=top;" parent="1" vertex="1">
                    <mxGeometry x="1340" y="240" width="160" height="90" as="geometry"/>
                </mxCell>
                <mxCell id="i_xe7NnG-zcU_OgoNs8J-26" value="Calendar&#10;Microservice" style="shape=module;align=left;spacingLeft=20;align=center;verticalAlign=top;" parent="1" vertex="1">
                    <mxGeometry x="1340" y="436" width="160" height="90" as="geometry"/>
                </mxCell>
                <mxCell id="i_xe7NnG-zcU_OgoNs8J-27" value="Canteen&#10;Microservice" style="shape=module;align=left;spacingLeft=20;align=center;verticalAlign=top;" parent="1" vertex="1">
                    <mxGeometry x="1340" y="540" width="160" height="90" as="geometry"/>
                </mxCell>
                <mxCell id="zQtvv1rVp97oT0EoWzc8-1" value="* &quot;Component&quot; classes will actually be React functions with hooks and states, but in an UML class diagram it made most sense to represent them as classes." style="text;html=1;strokeColor=none;fillColor=none;align=center;verticalAlign=middle;whiteSpace=wrap;rounded=0;" parent="1" vertex="1">
                    <mxGeometry x="60" y="720" width="490" height="30" as="geometry"/>
                </mxCell>
            </root>
        </mxGraphModel>
    </diagram>
    <diagram id="iW_zV7bNJw8k8_l3rAjU" name="Frontend: Calendar Module">
        <mxGraphModel dx="946" dy="593" grid="1" gridSize="10" guides="1" tooltips="1" connect="1" arrows="1" fold="1" page="1" pageScale="1" pageWidth="827" pageHeight="1169" math="0" shadow="0">
            <root>
                <mxCell id="0"/>
                <mxCell id="1" parent="0"/>
                <mxCell id="-j1_Ne-1X1U2L0opSNy2-1" value="CalendarComponent" style="swimlane;fontStyle=1;align=center;verticalAlign=top;childLayout=stackLayout;horizontal=1;startSize=26;horizontalStack=0;resizeParent=1;resizeParentMax=0;resizeLast=0;collapsible=1;marginBottom=0;" parent="1" vertex="1">
                    <mxGeometry x="299" y="114" width="230" height="294" as="geometry"/>
                </mxCell>
                <mxCell id="-j1_Ne-1X1U2L0opSNy2-2" value="+ view: CalendarView" style="text;strokeColor=none;fillColor=none;align=left;verticalAlign=top;spacingLeft=4;spacingRight=4;overflow=hidden;rotatable=0;points=[[0,0.5],[1,0.5]];portConstraint=eastwest;" parent="-j1_Ne-1X1U2L0opSNy2-1" vertex="1">
                    <mxGeometry y="26" width="230" height="26" as="geometry"/>
                </mxCell>
                <mxCell id="-j1_Ne-1X1U2L0opSNy2-21" value="+ eventSources: Collection&lt;EventSource&gt;" style="text;strokeColor=none;fillColor=none;align=left;verticalAlign=top;spacingLeft=4;spacingRight=4;overflow=hidden;rotatable=0;points=[[0,0.5],[1,0.5]];portConstraint=eastwest;" parent="-j1_Ne-1X1U2L0opSNy2-1" vertex="1">
                    <mxGeometry y="52" width="230" height="26" as="geometry"/>
                </mxCell>
                <mxCell id="-j1_Ne-1X1U2L0opSNy2-22" value="+ style: CalendarStyle" style="text;strokeColor=none;fillColor=none;align=left;verticalAlign=top;spacingLeft=4;spacingRight=4;overflow=hidden;rotatable=0;points=[[0,0.5],[1,0.5]];portConstraint=eastwest;" parent="-j1_Ne-1X1U2L0opSNy2-1" vertex="1">
                    <mxGeometry y="78" width="230" height="26" as="geometry"/>
                </mxCell>
                <mxCell id="-j1_Ne-1X1U2L0opSNy2-23" value="+ settings: CalendarSettings" style="text;strokeColor=none;fillColor=none;align=left;verticalAlign=top;spacingLeft=4;spacingRight=4;overflow=hidden;rotatable=0;points=[[0,0.5],[1,0.5]];portConstraint=eastwest;" parent="-j1_Ne-1X1U2L0opSNy2-1" vertex="1">
                    <mxGeometry y="104" width="230" height="26" as="geometry"/>
                </mxCell>
                <mxCell id="-j1_Ne-1X1U2L0opSNy2-3" value="" style="line;strokeWidth=1;fillColor=none;align=left;verticalAlign=middle;spacingTop=-1;spacingLeft=3;spacingRight=3;rotatable=0;labelPosition=right;points=[];portConstraint=eastwest;" parent="-j1_Ne-1X1U2L0opSNy2-1" vertex="1">
                    <mxGeometry y="130" width="230" height="8" as="geometry"/>
                </mxCell>
                <mxCell id="-j1_Ne-1X1U2L0opSNy2-28" value="+ getView(): CalendarView " style="text;strokeColor=none;fillColor=none;align=left;verticalAlign=top;spacingLeft=4;spacingRight=4;overflow=hidden;rotatable=0;points=[[0,0.5],[1,0.5]];portConstraint=eastwest;" parent="-j1_Ne-1X1U2L0opSNy2-1" vertex="1">
                    <mxGeometry y="138" width="230" height="26" as="geometry"/>
                </mxCell>
                <mxCell id="-j1_Ne-1X1U2L0opSNy2-30" value="+ getEventSources(): EventSources " style="text;strokeColor=none;fillColor=none;align=left;verticalAlign=top;spacingLeft=4;spacingRight=4;overflow=hidden;rotatable=0;points=[[0,0.5],[1,0.5]];portConstraint=eastwest;" parent="-j1_Ne-1X1U2L0opSNy2-1" vertex="1">
                    <mxGeometry y="164" width="230" height="26" as="geometry"/>
                </mxCell>
                <mxCell id="-j1_Ne-1X1U2L0opSNy2-32" value="+ getEventSourceByID: EventSource" style="text;strokeColor=none;fillColor=none;align=left;verticalAlign=top;spacingLeft=4;spacingRight=4;overflow=hidden;rotatable=0;points=[[0,0.5],[1,0.5]];portConstraint=eastwest;" parent="-j1_Ne-1X1U2L0opSNy2-1" vertex="1">
                    <mxGeometry y="190" width="230" height="26" as="geometry"/>
                </mxCell>
                <mxCell id="-j1_Ne-1X1U2L0opSNy2-34" value="+ getEventByID: Event" style="text;strokeColor=none;fillColor=none;align=left;verticalAlign=top;spacingLeft=4;spacingRight=4;overflow=hidden;rotatable=0;points=[[0,0.5],[1,0.5]];portConstraint=eastwest;" parent="-j1_Ne-1X1U2L0opSNy2-1" vertex="1">
                    <mxGeometry y="216" width="230" height="26" as="geometry"/>
                </mxCell>
                <mxCell id="-j1_Ne-1X1U2L0opSNy2-29" value="+ getStyle(): CalendarStyle" style="text;strokeColor=none;fillColor=none;align=left;verticalAlign=top;spacingLeft=4;spacingRight=4;overflow=hidden;rotatable=0;points=[[0,0.5],[1,0.5]];portConstraint=eastwest;" parent="-j1_Ne-1X1U2L0opSNy2-1" vertex="1">
                    <mxGeometry y="242" width="230" height="26" as="geometry"/>
                </mxCell>
                <mxCell id="-j1_Ne-1X1U2L0opSNy2-31" value="+ getSettings(): CalendarSettings" style="text;strokeColor=none;fillColor=none;align=left;verticalAlign=top;spacingLeft=4;spacingRight=4;overflow=hidden;rotatable=0;points=[[0,0.5],[1,0.5]];portConstraint=eastwest;" parent="-j1_Ne-1X1U2L0opSNy2-1" vertex="1">
                    <mxGeometry y="268" width="230" height="26" as="geometry"/>
                </mxCell>
                <mxCell id="-j1_Ne-1X1U2L0opSNy2-5" value="EventSource" style="swimlane;fontStyle=1;align=center;verticalAlign=top;childLayout=stackLayout;horizontal=1;startSize=26;horizontalStack=0;resizeParent=1;resizeParentMax=0;resizeLast=0;collapsible=1;marginBottom=0;" parent="1" vertex="1">
                    <mxGeometry x="630" y="490" width="160" height="112" as="geometry">
                        <mxRectangle x="680" y="150" width="110" height="30" as="alternateBounds"/>
                    </mxGeometry>
                </mxCell>
                <mxCell id="-j1_Ne-1X1U2L0opSNy2-6" value="events: Collection&lt;Event&gt;" style="text;strokeColor=none;fillColor=none;align=left;verticalAlign=top;spacingLeft=4;spacingRight=4;overflow=hidden;rotatable=0;points=[[0,0.5],[1,0.5]];portConstraint=eastwest;" parent="-j1_Ne-1X1U2L0opSNy2-5" vertex="1">
                    <mxGeometry y="26" width="160" height="26" as="geometry"/>
                </mxCell>
                <mxCell id="-j1_Ne-1X1U2L0opSNy2-44" value="iCalURL: String  " style="text;strokeColor=none;fillColor=none;align=left;verticalAlign=top;spacingLeft=4;spacingRight=4;overflow=hidden;rotatable=0;points=[[0,0.5],[1,0.5]];portConstraint=eastwest;" parent="-j1_Ne-1X1U2L0opSNy2-5" vertex="1">
                    <mxGeometry y="52" width="160" height="26" as="geometry"/>
                </mxCell>
                <mxCell id="-j1_Ne-1X1U2L0opSNy2-45" value="jsonURL: String" style="text;strokeColor=none;fillColor=none;align=left;verticalAlign=top;spacingLeft=4;spacingRight=4;overflow=hidden;rotatable=0;points=[[0,0.5],[1,0.5]];portConstraint=eastwest;" parent="-j1_Ne-1X1U2L0opSNy2-5" vertex="1">
                    <mxGeometry y="78" width="160" height="26" as="geometry"/>
                </mxCell>
                <mxCell id="-j1_Ne-1X1U2L0opSNy2-7" value="" style="line;strokeWidth=1;fillColor=none;align=left;verticalAlign=middle;spacingTop=-1;spacingLeft=3;spacingRight=3;rotatable=0;labelPosition=right;points=[];portConstraint=eastwest;" parent="-j1_Ne-1X1U2L0opSNy2-5" vertex="1">
                    <mxGeometry y="104" width="160" height="8" as="geometry"/>
                </mxCell>
                <mxCell id="-j1_Ne-1X1U2L0opSNy2-9" value="Event" style="swimlane;fontStyle=1;align=center;verticalAlign=top;childLayout=stackLayout;horizontal=1;startSize=26;horizontalStack=0;resizeParent=1;resizeParentMax=0;resizeLast=0;collapsible=1;marginBottom=0;" parent="1" vertex="1">
                    <mxGeometry x="630" y="179" width="160" height="164" as="geometry"/>
                </mxCell>
                <mxCell id="-j1_Ne-1X1U2L0opSNy2-10" value="id: String" style="text;strokeColor=none;fillColor=none;align=left;verticalAlign=top;spacingLeft=4;spacingRight=4;overflow=hidden;rotatable=0;points=[[0,0.5],[1,0.5]];portConstraint=eastwest;" parent="-j1_Ne-1X1U2L0opSNy2-9" vertex="1">
                    <mxGeometry y="26" width="160" height="26" as="geometry"/>
                </mxCell>
                <mxCell id="-j1_Ne-1X1U2L0opSNy2-47" value="groupId: String" style="text;strokeColor=none;fillColor=none;align=left;verticalAlign=top;spacingLeft=4;spacingRight=4;overflow=hidden;rotatable=0;points=[[0,0.5],[1,0.5]];portConstraint=eastwest;" parent="-j1_Ne-1X1U2L0opSNy2-9" vertex="1">
                    <mxGeometry y="52" width="160" height="26" as="geometry"/>
                </mxCell>
                <mxCell id="-j1_Ne-1X1U2L0opSNy2-48" value="start: Datetime" style="text;strokeColor=none;fillColor=none;align=left;verticalAlign=top;spacingLeft=4;spacingRight=4;overflow=hidden;rotatable=0;points=[[0,0.5],[1,0.5]];portConstraint=eastwest;" parent="-j1_Ne-1X1U2L0opSNy2-9" vertex="1">
                    <mxGeometry y="78" width="160" height="26" as="geometry"/>
                </mxCell>
                <mxCell id="-j1_Ne-1X1U2L0opSNy2-49" value="end: Datetime" style="text;strokeColor=none;fillColor=none;align=left;verticalAlign=top;spacingLeft=4;spacingRight=4;overflow=hidden;rotatable=0;points=[[0,0.5],[1,0.5]];portConstraint=eastwest;" parent="-j1_Ne-1X1U2L0opSNy2-9" vertex="1">
                    <mxGeometry y="104" width="160" height="26" as="geometry"/>
                </mxCell>
                <mxCell id="-j1_Ne-1X1U2L0opSNy2-50" value="title: String" style="text;strokeColor=none;fillColor=none;align=left;verticalAlign=top;spacingLeft=4;spacingRight=4;overflow=hidden;rotatable=0;points=[[0,0.5],[1,0.5]];portConstraint=eastwest;" parent="-j1_Ne-1X1U2L0opSNy2-9" vertex="1">
                    <mxGeometry y="130" width="160" height="26" as="geometry"/>
                </mxCell>
                <mxCell id="-j1_Ne-1X1U2L0opSNy2-11" value="" style="line;strokeWidth=1;fillColor=none;align=left;verticalAlign=middle;spacingTop=-1;spacingLeft=3;spacingRight=3;rotatable=0;labelPosition=right;points=[];portConstraint=eastwest;" parent="-j1_Ne-1X1U2L0opSNy2-9" vertex="1">
                    <mxGeometry y="156" width="160" height="8" as="geometry"/>
                </mxCell>
                <mxCell id="-j1_Ne-1X1U2L0opSNy2-13" value="CalendarView" style="swimlane;fontStyle=1;align=center;verticalAlign=top;childLayout=stackLayout;horizontal=1;startSize=26;horizontalStack=0;resizeParent=1;resizeParentMax=0;resizeLast=0;collapsible=1;marginBottom=0;" parent="1" vertex="1">
                    <mxGeometry x="29" y="136" width="160" height="34" as="geometry"/>
                </mxCell>
                <mxCell id="-j1_Ne-1X1U2L0opSNy2-15" value="" style="line;strokeWidth=1;fillColor=none;align=left;verticalAlign=middle;spacingTop=-1;spacingLeft=3;spacingRight=3;rotatable=0;labelPosition=right;points=[];portConstraint=eastwest;" parent="-j1_Ne-1X1U2L0opSNy2-13" vertex="1">
                    <mxGeometry y="26" width="160" height="8" as="geometry"/>
                </mxCell>
                <mxCell id="-j1_Ne-1X1U2L0opSNy2-17" value="CalendarStyle" style="swimlane;fontStyle=1;align=center;verticalAlign=top;childLayout=stackLayout;horizontal=1;startSize=26;horizontalStack=0;resizeParent=1;resizeParentMax=0;resizeLast=0;collapsible=1;marginBottom=0;" parent="1" vertex="1">
                    <mxGeometry x="29" y="369" width="160" height="34" as="geometry"/>
                </mxCell>
                <mxCell id="-j1_Ne-1X1U2L0opSNy2-19" value="" style="line;strokeWidth=1;fillColor=none;align=left;verticalAlign=middle;spacingTop=-1;spacingLeft=3;spacingRight=3;rotatable=0;labelPosition=right;points=[];portConstraint=eastwest;" parent="-j1_Ne-1X1U2L0opSNy2-17" vertex="1">
                    <mxGeometry y="26" width="160" height="8" as="geometry"/>
                </mxCell>
                <mxCell id="-j1_Ne-1X1U2L0opSNy2-24" value="CalendarSettings" style="swimlane;fontStyle=1;align=center;verticalAlign=top;childLayout=stackLayout;horizontal=1;startSize=26;horizontalStack=0;resizeParent=1;resizeParentMax=0;resizeLast=0;collapsible=1;marginBottom=0;" parent="1" vertex="1">
                    <mxGeometry x="29" y="248" width="160" height="34" as="geometry">
                        <mxRectangle x="29" y="248" width="140" height="30" as="alternateBounds"/>
                    </mxGeometry>
                </mxCell>
                <mxCell id="-j1_Ne-1X1U2L0opSNy2-26" value="" style="line;strokeWidth=1;fillColor=none;align=left;verticalAlign=middle;spacingTop=-1;spacingLeft=3;spacingRight=3;rotatable=0;labelPosition=right;points=[];portConstraint=eastwest;" parent="-j1_Ne-1X1U2L0opSNy2-24" vertex="1">
                    <mxGeometry y="26" width="160" height="8" as="geometry"/>
                </mxCell>
                <mxCell id="-j1_Ne-1X1U2L0opSNy2-35" value="" style="endArrow=diamondThin;endFill=1;endSize=24;html=1;rounded=0;exitX=1;exitY=0.5;exitDx=0;exitDy=0;" parent="1" source="-j1_Ne-1X1U2L0opSNy2-13" target="-j1_Ne-1X1U2L0opSNy2-1" edge="1">
                    <mxGeometry width="160" relative="1" as="geometry">
                        <mxPoint x="189" y="153" as="sourcePoint"/>
                        <mxPoint x="269" y="154" as="targetPoint"/>
                    </mxGeometry>
                </mxCell>
                <mxCell id="-j1_Ne-1X1U2L0opSNy2-37" value="" style="endArrow=diamondThin;endFill=1;endSize=24;html=1;rounded=0;exitX=1;exitY=0.5;exitDx=0;exitDy=0;" parent="1" source="-j1_Ne-1X1U2L0opSNy2-24" target="-j1_Ne-1X1U2L0opSNy2-1" edge="1">
                    <mxGeometry width="160" relative="1" as="geometry">
                        <mxPoint x="189" y="265" as="sourcePoint"/>
                        <mxPoint x="259" y="374" as="targetPoint"/>
                    </mxGeometry>
                </mxCell>
                <mxCell id="-j1_Ne-1X1U2L0opSNy2-39" value="" style="endArrow=diamondThin;endFill=1;endSize=24;html=1;rounded=0;exitX=1;exitY=0.5;exitDx=0;exitDy=0;" parent="1" source="-j1_Ne-1X1U2L0opSNy2-17" target="-j1_Ne-1X1U2L0opSNy2-1" edge="1">
                    <mxGeometry width="160" relative="1" as="geometry">
                        <mxPoint x="189" y="369" as="sourcePoint"/>
                        <mxPoint x="339" y="454" as="targetPoint"/>
                    </mxGeometry>
                </mxCell>
                <mxCell id="PJTw-nTrfd1jFTCco33r-1" value="" style="endArrow=diamondThin;endFill=1;endSize=24;html=1;rounded=0;" parent="1" source="-j1_Ne-1X1U2L0opSNy2-9" target="-j1_Ne-1X1U2L0opSNy2-1" edge="1">
                    <mxGeometry width="160" relative="1" as="geometry">
                        <mxPoint x="640" y="370" as="sourcePoint"/>
                        <mxPoint x="800" y="370" as="targetPoint"/>
                    </mxGeometry>
                </mxCell>
                <mxCell id="CDSgZqb5l5OcxiuBSo4P-2" value="Relation" style="endArrow=open;html=1;endSize=12;startArrow=diamondThin;startSize=14;startFill=0;edgeStyle=orthogonalEdgeStyle;rounded=0;exitX=0.5;exitY=0;exitDx=0;exitDy=0;" parent="1" source="-j1_Ne-1X1U2L0opSNy2-5" target="-j1_Ne-1X1U2L0opSNy2-9" edge="1">
                    <mxGeometry relative="1" as="geometry">
                        <mxPoint x="500" y="440" as="sourcePoint"/>
                        <mxPoint x="660" y="440" as="targetPoint"/>
                    </mxGeometry>
                </mxCell>
                <mxCell id="CDSgZqb5l5OcxiuBSo4P-3" value="1" style="edgeLabel;resizable=0;html=1;align=left;verticalAlign=top;" parent="CDSgZqb5l5OcxiuBSo4P-2" connectable="0" vertex="1">
                    <mxGeometry x="-1" relative="1" as="geometry">
                        <mxPoint x="-11" y="-36" as="offset"/>
                    </mxGeometry>
                </mxCell>
                <mxCell id="CDSgZqb5l5OcxiuBSo4P-4" value="1 .. n" style="edgeLabel;resizable=0;html=1;align=right;verticalAlign=top;" parent="CDSgZqb5l5OcxiuBSo4P-2" connectable="0" vertex="1">
                    <mxGeometry x="1" relative="1" as="geometry">
                        <mxPoint x="-2" y="9" as="offset"/>
                    </mxGeometry>
                </mxCell>
            </root>
        </mxGraphModel>
    </diagram>
    <diagram id="syxaVuTy69dYfaIZ_9Ns" name="Frontend: Canteen Module">
        <mxGraphModel dx="946" dy="593" grid="1" gridSize="10" guides="1" tooltips="1" connect="1" arrows="1" fold="1" page="1" pageScale="1" pageWidth="1169" pageHeight="827" math="0" shadow="0">
            <root>
                <mxCell id="0"/>
                <mxCell id="1" parent="0"/>
                <mxCell id="u_UpfPFDrpkJrQt6PLwH-1" value="CanteenView" style="swimlane;fontStyle=1;align=center;verticalAlign=top;childLayout=stackLayout;horizontal=1;startSize=26;horizontalStack=0;resizeParent=1;resizeParentMax=0;resizeLast=0;collapsible=1;marginBottom=0;" parent="1" vertex="1">
                    <mxGeometry x="40" y="120" width="160" height="34" as="geometry"/>
                </mxCell>
                <mxCell id="u_UpfPFDrpkJrQt6PLwH-2" value="" style="line;strokeWidth=1;fillColor=none;align=left;verticalAlign=middle;spacingTop=-1;spacingLeft=3;spacingRight=3;rotatable=0;labelPosition=right;points=[];portConstraint=eastwest;" parent="u_UpfPFDrpkJrQt6PLwH-1" vertex="1">
                    <mxGeometry y="26" width="160" height="8" as="geometry"/>
                </mxCell>
                <mxCell id="u_UpfPFDrpkJrQt6PLwH-3" value="CanteenSettings" style="swimlane;fontStyle=1;align=center;verticalAlign=top;childLayout=stackLayout;horizontal=1;startSize=26;horizontalStack=0;resizeParent=1;resizeParentMax=0;resizeLast=0;collapsible=1;marginBottom=0;" parent="1" vertex="1">
                    <mxGeometry x="40" y="200" width="160" height="34" as="geometry"/>
                </mxCell>
                <mxCell id="u_UpfPFDrpkJrQt6PLwH-4" value="" style="line;strokeWidth=1;fillColor=none;align=left;verticalAlign=middle;spacingTop=-1;spacingLeft=3;spacingRight=3;rotatable=0;labelPosition=right;points=[];portConstraint=eastwest;" parent="u_UpfPFDrpkJrQt6PLwH-3" vertex="1">
                    <mxGeometry y="26" width="160" height="8" as="geometry"/>
                </mxCell>
                <mxCell id="u_UpfPFDrpkJrQt6PLwH-5" value="CanteenComponent" style="swimlane;fontStyle=1;align=center;verticalAlign=top;childLayout=stackLayout;horizontal=1;startSize=26;horizontalStack=0;resizeParent=1;resizeParentMax=0;resizeLast=0;collapsible=1;marginBottom=0;" parent="1" vertex="1">
                    <mxGeometry x="320" y="83" width="240" height="268" as="geometry"/>
                </mxCell>
                <mxCell id="u_UpfPFDrpkJrQt6PLwH-6" value="+ view: CanteenView" style="text;strokeColor=none;fillColor=none;align=left;verticalAlign=top;spacingLeft=4;spacingRight=4;overflow=hidden;rotatable=0;points=[[0,0.5],[1,0.5]];portConstraint=eastwest;" parent="u_UpfPFDrpkJrQt6PLwH-5" vertex="1">
                    <mxGeometry y="26" width="240" height="26" as="geometry"/>
                </mxCell>
                <mxCell id="u_UpfPFDrpkJrQt6PLwH-8" value="+ style: CanteenHighlighting" style="text;strokeColor=none;fillColor=none;align=left;verticalAlign=top;spacingLeft=4;spacingRight=4;overflow=hidden;rotatable=0;points=[[0,0.5],[1,0.5]];portConstraint=eastwest;" parent="u_UpfPFDrpkJrQt6PLwH-5" vertex="1">
                    <mxGeometry y="52" width="240" height="26" as="geometry"/>
                </mxCell>
                <mxCell id="u_UpfPFDrpkJrQt6PLwH-9" value="+ settings: CanteenSettings" style="text;strokeColor=none;fillColor=none;align=left;verticalAlign=top;spacingLeft=4;spacingRight=4;overflow=hidden;rotatable=0;points=[[0,0.5],[1,0.5]];portConstraint=eastwest;" parent="u_UpfPFDrpkJrQt6PLwH-5" vertex="1">
                    <mxGeometry y="78" width="240" height="26" as="geometry"/>
                </mxCell>
                <mxCell id="u_UpfPFDrpkJrQt6PLwH-10" value="" style="line;strokeWidth=1;fillColor=none;align=left;verticalAlign=middle;spacingTop=-1;spacingLeft=3;spacingRight=3;rotatable=0;labelPosition=right;points=[];portConstraint=eastwest;" parent="u_UpfPFDrpkJrQt6PLwH-5" vertex="1">
                    <mxGeometry y="104" width="240" height="8" as="geometry"/>
                </mxCell>
                <mxCell id="u_UpfPFDrpkJrQt6PLwH-11" value="+ getView(): CanteenView " style="text;strokeColor=none;fillColor=none;align=left;verticalAlign=top;spacingLeft=4;spacingRight=4;overflow=hidden;rotatable=0;points=[[0,0.5],[1,0.5]];portConstraint=eastwest;" parent="u_UpfPFDrpkJrQt6PLwH-5" vertex="1">
                    <mxGeometry y="112" width="240" height="26" as="geometry"/>
                </mxCell>
                <mxCell id="u_UpfPFDrpkJrQt6PLwH-12" value="+ getEventSources(): EventSources " style="text;strokeColor=none;fillColor=none;align=left;verticalAlign=top;spacingLeft=4;spacingRight=4;overflow=hidden;rotatable=0;points=[[0,0.5],[1,0.5]];portConstraint=eastwest;" parent="u_UpfPFDrpkJrQt6PLwH-5" vertex="1">
                    <mxGeometry y="138" width="240" height="26" as="geometry"/>
                </mxCell>
                <mxCell id="u_UpfPFDrpkJrQt6PLwH-13" value="+ getEventSourceByID: EventSource" style="text;strokeColor=none;fillColor=none;align=left;verticalAlign=top;spacingLeft=4;spacingRight=4;overflow=hidden;rotatable=0;points=[[0,0.5],[1,0.5]];portConstraint=eastwest;" parent="u_UpfPFDrpkJrQt6PLwH-5" vertex="1">
                    <mxGeometry y="164" width="240" height="26" as="geometry"/>
                </mxCell>
                <mxCell id="u_UpfPFDrpkJrQt6PLwH-14" value="+ getEventByID: Event" style="text;strokeColor=none;fillColor=none;align=left;verticalAlign=top;spacingLeft=4;spacingRight=4;overflow=hidden;rotatable=0;points=[[0,0.5],[1,0.5]];portConstraint=eastwest;" parent="u_UpfPFDrpkJrQt6PLwH-5" vertex="1">
                    <mxGeometry y="190" width="240" height="26" as="geometry"/>
                </mxCell>
                <mxCell id="u_UpfPFDrpkJrQt6PLwH-15" value="+ getHighlights(): CanteenHighlighting" style="text;strokeColor=none;fillColor=none;align=left;verticalAlign=top;spacingLeft=4;spacingRight=4;overflow=hidden;rotatable=0;points=[[0,0.5],[1,0.5]];portConstraint=eastwest;" parent="u_UpfPFDrpkJrQt6PLwH-5" vertex="1">
                    <mxGeometry y="216" width="240" height="26" as="geometry"/>
                </mxCell>
                <mxCell id="u_UpfPFDrpkJrQt6PLwH-16" value="+ getSettings(): CanteenSettings" style="text;strokeColor=none;fillColor=none;align=left;verticalAlign=top;spacingLeft=4;spacingRight=4;overflow=hidden;rotatable=0;points=[[0,0.5],[1,0.5]];portConstraint=eastwest;" parent="u_UpfPFDrpkJrQt6PLwH-5" vertex="1">
                    <mxGeometry y="242" width="240" height="26" as="geometry"/>
                </mxCell>
                <mxCell id="u_UpfPFDrpkJrQt6PLwH-28" value="" style="endArrow=diamondThin;endFill=1;endSize=24;html=1;rounded=0;exitX=1;exitY=0.5;exitDx=0;exitDy=0;entryX=-0.012;entryY=0.769;entryDx=0;entryDy=0;entryPerimeter=0;" parent="1" source="u_UpfPFDrpkJrQt6PLwH-1" target="u_UpfPFDrpkJrQt6PLwH-9" edge="1">
                    <mxGeometry width="160" relative="1" as="geometry">
                        <mxPoint x="200" y="118" as="sourcePoint"/>
                        <mxPoint x="300" y="200" as="targetPoint"/>
                    </mxGeometry>
                </mxCell>
                <mxCell id="u_UpfPFDrpkJrQt6PLwH-29" value="" style="endArrow=diamondThin;endFill=1;endSize=24;html=1;rounded=0;exitX=1;exitY=0.5;exitDx=0;exitDy=0;entryX=-0.004;entryY=0.885;entryDx=0;entryDy=0;entryPerimeter=0;" parent="1" source="u_UpfPFDrpkJrQt6PLwH-3" target="u_UpfPFDrpkJrQt6PLwH-11" edge="1">
                    <mxGeometry width="160" relative="1" as="geometry">
                        <mxPoint x="200" y="230" as="sourcePoint"/>
                        <mxPoint x="310" y="220" as="targetPoint"/>
                    </mxGeometry>
                </mxCell>
                <mxCell id="u_UpfPFDrpkJrQt6PLwH-30" value="" style="endArrow=diamondThin;endFill=1;endSize=24;html=1;rounded=0;entryX=0;entryY=0.5;entryDx=0;entryDy=0;exitX=1;exitY=0.5;exitDx=0;exitDy=0;" parent="1" source="u_UpfPFDrpkJrQt6PLwH-33" target="u_UpfPFDrpkJrQt6PLwH-13" edge="1">
                    <mxGeometry width="160" relative="1" as="geometry">
                        <mxPoint x="200" y="334" as="sourcePoint"/>
                        <mxPoint x="350" y="419" as="targetPoint"/>
                    </mxGeometry>
                </mxCell>
                <mxCell id="u_UpfPFDrpkJrQt6PLwH-33" value="CanteenHighlighting" style="swimlane;fontStyle=1;align=center;verticalAlign=top;childLayout=stackLayout;horizontal=1;startSize=26;horizontalStack=0;resizeParent=1;resizeParentMax=0;resizeLast=0;collapsible=1;marginBottom=0;" parent="1" vertex="1">
                    <mxGeometry x="40" y="280" width="160" height="34" as="geometry"/>
                </mxCell>
                <mxCell id="u_UpfPFDrpkJrQt6PLwH-34" value="" style="line;strokeWidth=1;fillColor=none;align=left;verticalAlign=middle;spacingTop=-1;spacingLeft=3;spacingRight=3;rotatable=0;labelPosition=right;points=[];portConstraint=eastwest;" parent="u_UpfPFDrpkJrQt6PLwH-33" vertex="1">
                    <mxGeometry y="26" width="160" height="8" as="geometry"/>
                </mxCell>
            </root>
        </mxGraphModel>
    </diagram>
    <diagram id="6lDjqpvNv-3yXAfHfk7i" name="Frontend: Settings Module">
        <mxGraphModel dx="946" dy="593" grid="1" gridSize="10" guides="1" tooltips="1" connect="1" arrows="1" fold="1" page="1" pageScale="1" pageWidth="827" pageHeight="1169" math="0" shadow="0">
            <root>
                <mxCell id="0"/>
                <mxCell id="1" parent="0"/>
                <mxCell id="gIMParrc87oAp2wT5e7--1" style="rounded=0;orthogonalLoop=1;jettySize=auto;html=1;entryX=0;entryY=0.5;entryDx=0;entryDy=0;dashed=1;endArrow=open;endFill=0;endSize=12;exitX=0.999;exitY=0.35;exitDx=0;exitDy=0;exitPerimeter=0;" edge="1" parent="1" source="gIMParrc87oAp2wT5e7--7" target="gIMParrc87oAp2wT5e7--8">
                    <mxGeometry relative="1" as="geometry">
                        <mxPoint x="629.9999999999998" y="147.50200000000007" as="targetPoint"/>
                    </mxGeometry>
                </mxCell>
                <mxCell id="gIMParrc87oAp2wT5e7--2" value="Use" style="edgeLabel;html=1;align=center;verticalAlign=middle;resizable=0;points=[];" vertex="1" connectable="0" parent="gIMParrc87oAp2wT5e7--1">
                    <mxGeometry x="0.0586" y="1" relative="1" as="geometry">
                        <mxPoint as="offset"/>
                    </mxGeometry>
                </mxCell>
                <mxCell id="gIMParrc87oAp2wT5e7--3" style="edgeStyle=none;rounded=0;orthogonalLoop=1;jettySize=auto;html=1;entryX=1;entryY=0.479;entryDx=0;entryDy=0;entryPerimeter=0;endArrow=none;endFill=0;endSize=12;startArrow=diamondThin;startFill=1;startSize=24;exitX=-0.009;exitY=0.185;exitDx=0;exitDy=0;exitPerimeter=0;" edge="1" parent="1" source="gIMParrc87oAp2wT5e7--7" target="gIMParrc87oAp2wT5e7--19">
                    <mxGeometry relative="1" as="geometry"/>
                </mxCell>
                <mxCell id="gIMParrc87oAp2wT5e7--4" value="SettingsComponent" style="swimlane;fontStyle=1;align=center;verticalAlign=top;childLayout=stackLayout;horizontal=1;startSize=26;horizontalStack=0;resizeParent=1;resizeParentMax=0;resizeLast=0;collapsible=1;marginBottom=0;" vertex="1" parent="1">
                    <mxGeometry x="290" y="140" width="300" height="178" as="geometry"/>
                </mxCell>
                <mxCell id="gIMParrc87oAp2wT5e7--5" value="+ subSettings: List&lt;SettingsComponent&gt;" style="text;strokeColor=none;fillColor=none;align=left;verticalAlign=top;spacingLeft=4;spacingRight=4;overflow=hidden;rotatable=0;points=[[0,0.5],[1,0.5]];portConstraint=eastwest;" vertex="1" parent="gIMParrc87oAp2wT5e7--4">
                    <mxGeometry y="26" width="300" height="24" as="geometry"/>
                </mxCell>
                <mxCell id="gIMParrc87oAp2wT5e7--6" value="" style="line;strokeWidth=1;fillColor=none;align=left;verticalAlign=middle;spacingTop=-1;spacingLeft=3;spacingRight=3;rotatable=0;labelPosition=right;points=[];portConstraint=eastwest;strokeColor=inherit;" vertex="1" parent="gIMParrc87oAp2wT5e7--4">
                    <mxGeometry y="50" width="300" height="8" as="geometry"/>
                </mxCell>
                <mxCell id="gIMParrc87oAp2wT5e7--7" value="+ openSubSettings(subSettings): SettingsComponent&#10;&#10;+ updateSettings(User): boolean&#10;&#10;+ saveSettings(User): settings&#10;&#10;+ getSubSettingsLabel(SettingsComponent): String" style="text;strokeColor=none;fillColor=none;align=left;verticalAlign=top;spacingLeft=4;spacingRight=4;overflow=hidden;rotatable=0;points=[[0,0.5],[1,0.5]];portConstraint=eastwest;" vertex="1" parent="gIMParrc87oAp2wT5e7--4">
                    <mxGeometry y="58" width="300" height="120" as="geometry"/>
                </mxCell>
                <mxCell id="gIMParrc87oAp2wT5e7--8" value="User" style="swimlane;fontStyle=1;align=center;verticalAlign=top;childLayout=stackLayout;horizontal=1;startSize=26;horizontalStack=0;resizeParent=1;resizeParentMax=0;resizeLast=0;collapsible=1;marginBottom=0;" vertex="1" parent="1">
                    <mxGeometry x="650" y="160" width="160" height="34" as="geometry"/>
                </mxCell>
                <mxCell id="gIMParrc87oAp2wT5e7--9" value="" style="line;strokeWidth=1;fillColor=none;align=left;verticalAlign=middle;spacingTop=-1;spacingLeft=3;spacingRight=3;rotatable=0;labelPosition=right;points=[];portConstraint=eastwest;strokeColor=inherit;" vertex="1" parent="gIMParrc87oAp2wT5e7--8">
                    <mxGeometry y="26" width="160" height="8" as="geometry"/>
                </mxCell>
                <mxCell id="gIMParrc87oAp2wT5e7--10" value="" style="group" vertex="1" connectable="0" parent="1">
                    <mxGeometry x="20" y="20" width="210" height="480" as="geometry"/>
                </mxCell>
                <mxCell id="gIMParrc87oAp2wT5e7--11" value="CalendarSettings" style="swimlane;fontStyle=1;align=center;verticalAlign=top;childLayout=stackLayout;horizontal=1;startSize=26;horizontalStack=0;resizeParent=1;resizeParentMax=0;resizeLast=0;collapsible=1;marginBottom=0;" vertex="1" parent="gIMParrc87oAp2wT5e7--10">
                    <mxGeometry x="25" y="40" width="160" height="34" as="geometry"/>
                </mxCell>
                <mxCell id="gIMParrc87oAp2wT5e7--12" value="" style="line;strokeWidth=1;fillColor=none;align=left;verticalAlign=middle;spacingTop=-1;spacingLeft=3;spacingRight=3;rotatable=0;labelPosition=right;points=[];portConstraint=eastwest;strokeColor=inherit;" vertex="1" parent="gIMParrc87oAp2wT5e7--11">
                    <mxGeometry y="26" width="160" height="8" as="geometry"/>
                </mxCell>
                <mxCell id="gIMParrc87oAp2wT5e7--13" value="CanteenSettings" style="swimlane;fontStyle=1;align=center;verticalAlign=top;childLayout=stackLayout;horizontal=1;startSize=26;horizontalStack=0;resizeParent=1;resizeParentMax=0;resizeLast=0;collapsible=1;marginBottom=0;" vertex="1" parent="gIMParrc87oAp2wT5e7--10">
                    <mxGeometry x="25" y="160" width="160" height="34" as="geometry"/>
                </mxCell>
                <mxCell id="gIMParrc87oAp2wT5e7--14" value="" style="line;strokeWidth=1;fillColor=none;align=left;verticalAlign=middle;spacingTop=-1;spacingLeft=3;spacingRight=3;rotatable=0;labelPosition=right;points=[];portConstraint=eastwest;strokeColor=inherit;" vertex="1" parent="gIMParrc87oAp2wT5e7--13">
                    <mxGeometry y="26" width="160" height="8" as="geometry"/>
                </mxCell>
                <mxCell id="gIMParrc87oAp2wT5e7--15" value="GeneralSettings" style="swimlane;fontStyle=1;align=center;verticalAlign=top;childLayout=stackLayout;horizontal=1;startSize=26;horizontalStack=0;resizeParent=1;resizeParentMax=0;resizeLast=0;collapsible=1;marginBottom=0;" vertex="1" parent="gIMParrc87oAp2wT5e7--10">
                    <mxGeometry x="25" y="280" width="160" height="34" as="geometry"/>
                </mxCell>
                <mxCell id="gIMParrc87oAp2wT5e7--16" value="" style="line;strokeWidth=1;fillColor=none;align=left;verticalAlign=middle;spacingTop=-1;spacingLeft=3;spacingRight=3;rotatable=0;labelPosition=right;points=[];portConstraint=eastwest;strokeColor=inherit;" vertex="1" parent="gIMParrc87oAp2wT5e7--15">
                    <mxGeometry y="26" width="160" height="8" as="geometry"/>
                </mxCell>
                <mxCell id="gIMParrc87oAp2wT5e7--17" value="NotificationSettings" style="swimlane;fontStyle=1;align=center;verticalAlign=top;childLayout=stackLayout;horizontal=1;startSize=26;horizontalStack=0;resizeParent=1;resizeParentMax=0;resizeLast=0;collapsible=1;marginBottom=0;" vertex="1" parent="gIMParrc87oAp2wT5e7--10">
                    <mxGeometry x="25" y="400" width="160" height="34" as="geometry"/>
                </mxCell>
                <mxCell id="gIMParrc87oAp2wT5e7--18" value="" style="line;strokeWidth=1;fillColor=none;align=left;verticalAlign=middle;spacingTop=-1;spacingLeft=3;spacingRight=3;rotatable=0;labelPosition=right;points=[];portConstraint=eastwest;strokeColor=inherit;" vertex="1" parent="gIMParrc87oAp2wT5e7--17">
                    <mxGeometry y="26" width="160" height="8" as="geometry"/>
                </mxCell>
                <mxCell id="gIMParrc87oAp2wT5e7--19" value="SubSettings" style="shape=umlFrame;whiteSpace=wrap;html=1;width=80;height=30;" vertex="1" parent="gIMParrc87oAp2wT5e7--10">
                    <mxGeometry width="210" height="480" as="geometry"/>
                </mxCell>
            </root>
        </mxGraphModel>
    </diagram>
    <diagram id="qdtkOYwJ0ojf_PK-fGdy" name="Backend: User Microservice">
        <mxGraphModel dx="211" dy="1818" grid="1" gridSize="10" guides="1" tooltips="1" connect="1" arrows="1" fold="1" page="1" pageScale="1" pageWidth="827" pageHeight="1169" math="0" shadow="0">
            <root>
                <mxCell id="0"/>
                <mxCell id="1" parent="0"/>
                <mxCell id="rCbeNhPe30k3TQ8we0zd-1" value="User Microservice" style="shape=umlFrame;whiteSpace=wrap;html=1;width=140;height=43;" parent="1" vertex="1">
                    <mxGeometry x="840" y="-1160" width="1190" height="593" as="geometry"/>
                </mxCell>
                <mxCell id="rCbeNhPe30k3TQ8we0zd-2" value="UserController" style="swimlane;fontStyle=1;align=center;verticalAlign=top;childLayout=stackLayout;horizontal=1;startSize=26;horizontalStack=0;resizeParent=1;resizeParentMax=0;resizeLast=0;collapsible=1;marginBottom=0;" parent="1" vertex="1">
                    <mxGeometry x="1120" y="-957" width="160" height="150" as="geometry"/>
                </mxCell>
                <mxCell id="rCbeNhPe30k3TQ8we0zd-3" value="- userService : IUserService" style="text;strokeColor=none;fillColor=none;align=left;verticalAlign=top;spacingLeft=4;spacingRight=4;overflow=hidden;rotatable=0;points=[[0,0.5],[1,0.5]];portConstraint=eastwest;" parent="rCbeNhPe30k3TQ8we0zd-2" vertex="1">
                    <mxGeometry y="26" width="160" height="26" as="geometry"/>
                </mxCell>
                <mxCell id="rCbeNhPe30k3TQ8we0zd-4" value="" style="line;strokeWidth=1;fillColor=none;align=left;verticalAlign=middle;spacingTop=-1;spacingLeft=3;spacingRight=3;rotatable=0;labelPosition=right;points=[];portConstraint=eastwest;" parent="rCbeNhPe30k3TQ8we0zd-2" vertex="1">
                    <mxGeometry y="52" width="160" height="8" as="geometry"/>
                </mxCell>
                <mxCell id="rCbeNhPe30k3TQ8we0zd-5" value="+ getAllUsers(): List&lt;User&gt;&#10;+ getUser(long): User&#10;+ addUser(User): boolean&#10;+ updateUser(User): User&#10;+ authUser(User): String" style="text;strokeColor=none;fillColor=none;align=left;verticalAlign=top;spacingLeft=4;spacingRight=4;overflow=hidden;rotatable=0;points=[[0,0.5],[1,0.5]];portConstraint=eastwest;" parent="rCbeNhPe30k3TQ8we0zd-2" vertex="1">
                    <mxGeometry y="60" width="160" height="90" as="geometry"/>
                </mxCell>
                <mxCell id="rCbeNhPe30k3TQ8we0zd-6" value="UserMicroService" style="swimlane;fontStyle=1;align=center;verticalAlign=top;childLayout=stackLayout;horizontal=1;startSize=26;horizontalStack=0;resizeParent=1;resizeParentMax=0;resizeLast=0;collapsible=1;marginBottom=0;" parent="1" vertex="1">
                    <mxGeometry x="880" y="-957" width="160" height="60" as="geometry"/>
                </mxCell>
                <mxCell id="rCbeNhPe30k3TQ8we0zd-7" value="" style="line;strokeWidth=1;fillColor=none;align=left;verticalAlign=middle;spacingTop=-1;spacingLeft=3;spacingRight=3;rotatable=0;labelPosition=right;points=[];portConstraint=eastwest;" parent="rCbeNhPe30k3TQ8we0zd-6" vertex="1">
                    <mxGeometry y="26" width="160" height="8" as="geometry"/>
                </mxCell>
                <mxCell id="rCbeNhPe30k3TQ8we0zd-8" value="+ main(String[]): void" style="text;strokeColor=none;fillColor=none;align=left;verticalAlign=top;spacingLeft=4;spacingRight=4;overflow=hidden;rotatable=0;points=[[0,0.5],[1,0.5]];portConstraint=eastwest;" parent="rCbeNhPe30k3TQ8we0zd-6" vertex="1">
                    <mxGeometry y="34" width="160" height="26" as="geometry"/>
                </mxCell>
                <mxCell id="rCbeNhPe30k3TQ8we0zd-9" value="UserService" style="swimlane;fontStyle=1;align=center;verticalAlign=top;childLayout=stackLayout;horizontal=1;startSize=26;horizontalStack=0;resizeParent=1;resizeParentMax=0;resizeLast=0;collapsible=1;marginBottom=0;" parent="1" vertex="1">
                    <mxGeometry x="1362.5" y="-771" width="205" height="150" as="geometry"/>
                </mxCell>
                <mxCell id="rCbeNhPe30k3TQ8we0zd-10" value="- userRepository: UserRepository" style="text;strokeColor=none;fillColor=none;align=left;verticalAlign=top;spacingLeft=4;spacingRight=4;overflow=hidden;rotatable=0;points=[[0,0.5],[1,0.5]];portConstraint=eastwest;" parent="rCbeNhPe30k3TQ8we0zd-9" vertex="1">
                    <mxGeometry y="26" width="205" height="26" as="geometry"/>
                </mxCell>
                <mxCell id="rCbeNhPe30k3TQ8we0zd-11" value="" style="line;strokeWidth=1;fillColor=none;align=left;verticalAlign=middle;spacingTop=-1;spacingLeft=3;spacingRight=3;rotatable=0;labelPosition=right;points=[];portConstraint=eastwest;" parent="rCbeNhPe30k3TQ8we0zd-9" vertex="1">
                    <mxGeometry y="52" width="205" height="8" as="geometry"/>
                </mxCell>
                <mxCell id="rCbeNhPe30k3TQ8we0zd-12" value="+ getAllUsers(): List&lt;User&gt;&#10;+ getUser(long): User&#10;+ addUser(User): boolean&#10;+ updateUser(User): User&#10;+ authUser(User): String" style="text;strokeColor=none;fillColor=none;align=left;verticalAlign=top;spacingLeft=4;spacingRight=4;overflow=hidden;rotatable=0;points=[[0,0.5],[1,0.5]];portConstraint=eastwest;" parent="rCbeNhPe30k3TQ8we0zd-9" vertex="1">
                    <mxGeometry y="60" width="205" height="90" as="geometry"/>
                </mxCell>
                <mxCell id="rCbeNhPe30k3TQ8we0zd-13" value="&lt;&lt;interface&gt;&gt; SpringUserRepository" style="swimlane;fontStyle=1;align=center;verticalAlign=top;childLayout=stackLayout;horizontal=1;startSize=26;horizontalStack=0;resizeParent=1;resizeParentMax=0;resizeLast=0;collapsible=1;marginBottom=0;" parent="1" vertex="1">
                    <mxGeometry x="1692.5" y="-957" width="250" height="110" as="geometry"/>
                </mxCell>
                <mxCell id="rCbeNhPe30k3TQ8we0zd-14" value="" style="line;strokeWidth=1;fillColor=none;align=left;verticalAlign=middle;spacingTop=-1;spacingLeft=3;spacingRight=3;rotatable=0;labelPosition=right;points=[];portConstraint=eastwest;" parent="rCbeNhPe30k3TQ8we0zd-13" vertex="1">
                    <mxGeometry y="26" width="250" height="8" as="geometry"/>
                </mxCell>
                <mxCell id="rCbeNhPe30k3TQ8we0zd-15" value="+ findAll(): List&lt;User&gt;&#10;+ findById(Long): User&#10;+ add(User): boolean&#10;+ updateUser(User): User" style="text;strokeColor=none;fillColor=none;align=left;verticalAlign=top;spacingLeft=4;spacingRight=4;overflow=hidden;rotatable=0;points=[[0,0.5],[1,0.5]];portConstraint=eastwest;" parent="rCbeNhPe30k3TQ8we0zd-13" vertex="1">
                    <mxGeometry y="34" width="250" height="76" as="geometry"/>
                </mxCell>
                <mxCell id="rCbeNhPe30k3TQ8we0zd-16" value="&lt;&lt;interface&gt;&gt; IUserService" style="swimlane;fontStyle=1;align=center;verticalAlign=top;childLayout=stackLayout;horizontal=1;startSize=26;horizontalStack=0;resizeParent=1;resizeParentMax=0;resizeLast=0;collapsible=1;marginBottom=0;" parent="1" vertex="1">
                    <mxGeometry x="1360" y="-957" width="210" height="124" as="geometry"/>
                </mxCell>
                <mxCell id="rCbeNhPe30k3TQ8we0zd-17" value="" style="line;strokeWidth=1;fillColor=none;align=left;verticalAlign=middle;spacingTop=-1;spacingLeft=3;spacingRight=3;rotatable=0;labelPosition=right;points=[];portConstraint=eastwest;" parent="rCbeNhPe30k3TQ8we0zd-16" vertex="1">
                    <mxGeometry y="26" width="210" height="8" as="geometry"/>
                </mxCell>
                <mxCell id="rCbeNhPe30k3TQ8we0zd-18" value="+ getAllUsers(): List&lt;User&gt;&#10;+ getUser(long): User&#10;+ addUser(User): boolean&#10;+ updateUser(User): User&#10;+ authUser(User): String" style="text;strokeColor=none;fillColor=none;align=left;verticalAlign=top;spacingLeft=4;spacingRight=4;overflow=hidden;rotatable=0;points=[[0,0.5],[1,0.5]];portConstraint=eastwest;" parent="rCbeNhPe30k3TQ8we0zd-16" vertex="1">
                    <mxGeometry y="34" width="210" height="90" as="geometry"/>
                </mxCell>
                <mxCell id="rCbeNhPe30k3TQ8we0zd-19" value="UserRepository" style="swimlane;fontStyle=1;align=center;verticalAlign=top;childLayout=stackLayout;horizontal=1;startSize=26;horizontalStack=0;resizeParent=1;resizeParentMax=0;resizeLast=0;collapsible=1;marginBottom=0;" parent="1" vertex="1">
                    <mxGeometry x="1675" y="-771" width="285" height="150" as="geometry"/>
                </mxCell>
                <mxCell id="rCbeNhPe30k3TQ8we0zd-20" value="- springUserRepository: SpringUserRepository" style="text;strokeColor=none;fillColor=none;align=left;verticalAlign=top;spacingLeft=4;spacingRight=4;overflow=hidden;rotatable=0;points=[[0,0.5],[1,0.5]];portConstraint=eastwest;" parent="rCbeNhPe30k3TQ8we0zd-19" vertex="1">
                    <mxGeometry y="26" width="285" height="26" as="geometry"/>
                </mxCell>
                <mxCell id="rCbeNhPe30k3TQ8we0zd-21" value="" style="line;strokeWidth=1;fillColor=none;align=left;verticalAlign=middle;spacingTop=-1;spacingLeft=3;spacingRight=3;rotatable=0;labelPosition=right;points=[];portConstraint=eastwest;" parent="rCbeNhPe30k3TQ8we0zd-19" vertex="1">
                    <mxGeometry y="52" width="285" height="8" as="geometry"/>
                </mxCell>
                <mxCell id="rCbeNhPe30k3TQ8we0zd-22" value="+ findAll(): List&lt;User&gt;&#10;+ findById(Long): User&#10;+ add(User): boolean&#10;+ updateUser(User): User" style="text;strokeColor=none;fillColor=none;align=left;verticalAlign=top;spacingLeft=4;spacingRight=4;overflow=hidden;rotatable=0;points=[[0,0.5],[1,0.5]];portConstraint=eastwest;" parent="rCbeNhPe30k3TQ8we0zd-19" vertex="1">
                    <mxGeometry y="60" width="285" height="90" as="geometry"/>
                </mxCell>
                <mxCell id="rCbeNhPe30k3TQ8we0zd-23" value="User" style="swimlane;fontStyle=1;align=center;verticalAlign=top;childLayout=stackLayout;horizontal=1;startSize=26;horizontalStack=0;resizeParent=1;resizeParentMax=0;resizeLast=0;collapsible=1;marginBottom=0;" parent="1" vertex="1">
                    <mxGeometry x="1385" y="-1147" width="160" height="154" as="geometry"/>
                </mxCell>
                <mxCell id="rCbeNhPe30k3TQ8we0zd-24" value="- id: Long&#10;- firstName: String&#10;- lastName: String&#10;- email: String&#10;- course: String&#10;- pwHash: String" style="text;strokeColor=none;fillColor=none;align=left;verticalAlign=top;spacingLeft=4;spacingRight=4;overflow=hidden;rotatable=0;points=[[0,0.5],[1,0.5]];portConstraint=eastwest;" parent="rCbeNhPe30k3TQ8we0zd-23" vertex="1">
                    <mxGeometry y="26" width="160" height="94" as="geometry"/>
                </mxCell>
                <mxCell id="rCbeNhPe30k3TQ8we0zd-25" value="" style="line;strokeWidth=1;fillColor=none;align=left;verticalAlign=middle;spacingTop=-1;spacingLeft=3;spacingRight=3;rotatable=0;labelPosition=right;points=[];portConstraint=eastwest;" parent="rCbeNhPe30k3TQ8we0zd-23" vertex="1">
                    <mxGeometry y="120" width="160" height="8" as="geometry"/>
                </mxCell>
                <mxCell id="rCbeNhPe30k3TQ8we0zd-26" value="+ getter / setter" style="text;strokeColor=none;fillColor=none;align=left;verticalAlign=top;spacingLeft=4;spacingRight=4;overflow=hidden;rotatable=0;points=[[0,0.5],[1,0.5]];portConstraint=eastwest;" parent="rCbeNhPe30k3TQ8we0zd-23" vertex="1">
                    <mxGeometry y="128" width="160" height="26" as="geometry"/>
                </mxCell>
                <mxCell id="rCbeNhPe30k3TQ8we0zd-27" value="" style="endArrow=diamondThin;endFill=1;endSize=24;html=1;rounded=0;exitX=1;exitY=0.5;exitDx=0;exitDy=0;entryX=0;entryY=0.154;entryDx=0;entryDy=0;entryPerimeter=0;" parent="1" source="rCbeNhPe30k3TQ8we0zd-6" target="rCbeNhPe30k3TQ8we0zd-3" edge="1">
                    <mxGeometry width="160" relative="1" as="geometry">
                        <mxPoint x="1060" y="-927.5" as="sourcePoint"/>
                        <mxPoint x="1220" y="-927.5" as="targetPoint"/>
                    </mxGeometry>
                </mxCell>
                <mxCell id="rCbeNhPe30k3TQ8we0zd-28" value="" style="endArrow=diamondThin;endFill=1;endSize=24;html=1;rounded=0;exitX=1;exitY=0.5;exitDx=0;exitDy=0;entryX=0;entryY=0.25;entryDx=0;entryDy=0;" parent="1" source="rCbeNhPe30k3TQ8we0zd-3" target="rCbeNhPe30k3TQ8we0zd-16" edge="1">
                    <mxGeometry width="160" relative="1" as="geometry">
                        <mxPoint x="1300" y="-907" as="sourcePoint"/>
                        <mxPoint x="1460" y="-907" as="targetPoint"/>
                    </mxGeometry>
                </mxCell>
                <mxCell id="rCbeNhPe30k3TQ8we0zd-29" value="" style="endArrow=block;dashed=1;endFill=0;endSize=12;html=1;rounded=0;entryX=0.5;entryY=1;entryDx=0;entryDy=0;entryPerimeter=0;exitX=0.5;exitY=0;exitDx=0;exitDy=0;" parent="1" source="rCbeNhPe30k3TQ8we0zd-9" target="rCbeNhPe30k3TQ8we0zd-18" edge="1">
                    <mxGeometry width="160" relative="1" as="geometry">
                        <mxPoint x="990" y="-667" as="sourcePoint"/>
                        <mxPoint x="1150" y="-667" as="targetPoint"/>
                    </mxGeometry>
                </mxCell>
                <mxCell id="rCbeNhPe30k3TQ8we0zd-30" value="" style="endArrow=diamondThin;endFill=1;endSize=24;html=1;rounded=0;entryX=0.5;entryY=1.115;entryDx=0;entryDy=0;entryPerimeter=0;exitX=0.5;exitY=0;exitDx=0;exitDy=0;" parent="1" source="rCbeNhPe30k3TQ8we0zd-19" target="rCbeNhPe30k3TQ8we0zd-15" edge="1">
                    <mxGeometry width="160" relative="1" as="geometry">
                        <mxPoint x="1580" y="-652" as="sourcePoint"/>
                        <mxPoint x="1740" y="-652" as="targetPoint"/>
                    </mxGeometry>
                </mxCell>
                <mxCell id="rCbeNhPe30k3TQ8we0zd-31" value="" style="endArrow=diamondThin;endFill=1;endSize=24;html=1;rounded=0;exitX=1;exitY=0.5;exitDx=0;exitDy=0;entryX=0;entryY=0.25;entryDx=0;entryDy=0;" parent="1" source="rCbeNhPe30k3TQ8we0zd-10" target="rCbeNhPe30k3TQ8we0zd-19" edge="1">
                    <mxGeometry width="160" relative="1" as="geometry">
                        <mxPoint x="1560" y="-647" as="sourcePoint"/>
                        <mxPoint x="1720" y="-647" as="targetPoint"/>
                    </mxGeometry>
                </mxCell>
                <mxCell id="rCbeNhPe30k3TQ8we0zd-32" value="&lt;&lt;interface&gt;&gt; JpaRepository" style="swimlane;fontStyle=1;align=center;verticalAlign=top;childLayout=stackLayout;horizontal=1;startSize=26;horizontalStack=0;resizeParent=1;resizeParentMax=0;resizeLast=0;collapsible=1;marginBottom=0;" parent="1" vertex="1">
                    <mxGeometry x="1630" y="-1107" width="250" height="34" as="geometry"/>
                </mxCell>
                <mxCell id="rCbeNhPe30k3TQ8we0zd-33" value="" style="line;strokeWidth=1;fillColor=none;align=left;verticalAlign=middle;spacingTop=-1;spacingLeft=3;spacingRight=3;rotatable=0;labelPosition=right;points=[];portConstraint=eastwest;" parent="rCbeNhPe30k3TQ8we0zd-32" vertex="1">
                    <mxGeometry y="26" width="250" height="8" as="geometry"/>
                </mxCell>
                <mxCell id="rCbeNhPe30k3TQ8we0zd-34" value="Extends" style="endArrow=block;endSize=16;endFill=0;html=1;rounded=0;exitX=0.5;exitY=0;exitDx=0;exitDy=0;entryX=0.5;entryY=1;entryDx=0;entryDy=0;" parent="1" source="rCbeNhPe30k3TQ8we0zd-13" target="rCbeNhPe30k3TQ8we0zd-32" edge="1">
                    <mxGeometry width="160" relative="1" as="geometry">
                        <mxPoint x="1700" y="-1017" as="sourcePoint"/>
                        <mxPoint x="1860" y="-1017" as="targetPoint"/>
                    </mxGeometry>
                </mxCell>
                <mxCell id="rCbeNhPe30k3TQ8we0zd-35" value="Use" style="endArrow=open;endSize=12;dashed=1;html=1;rounded=0;exitX=0.5;exitY=0;exitDx=0;exitDy=0;entryX=0;entryY=0.25;entryDx=0;entryDy=0;" parent="1" source="rCbeNhPe30k3TQ8we0zd-2" target="rCbeNhPe30k3TQ8we0zd-23" edge="1">
                    <mxGeometry width="160" relative="1" as="geometry">
                        <mxPoint x="1250" y="-1027" as="sourcePoint"/>
                        <mxPoint x="1410" y="-1027" as="targetPoint"/>
                    </mxGeometry>
                </mxCell>
                <mxCell id="rCbeNhPe30k3TQ8we0zd-36" value="Use" style="endArrow=open;endSize=12;dashed=1;html=1;rounded=0;exitX=0.5;exitY=0;exitDx=0;exitDy=0;entryX=0.5;entryY=1;entryDx=0;entryDy=0;entryPerimeter=0;" parent="1" source="rCbeNhPe30k3TQ8we0zd-16" target="rCbeNhPe30k3TQ8we0zd-26" edge="1">
                    <mxGeometry width="160" relative="1" as="geometry">
                        <mxPoint x="1420" y="-987" as="sourcePoint"/>
                        <mxPoint x="1580" y="-987" as="targetPoint"/>
                    </mxGeometry>
                </mxCell>
                <mxCell id="rCbeNhPe30k3TQ8we0zd-37" value="Use" style="endArrow=open;endSize=12;dashed=1;html=1;rounded=0;exitX=0.25;exitY=0;exitDx=0;exitDy=0;entryX=1;entryY=0.5;entryDx=0;entryDy=0;" parent="1" source="rCbeNhPe30k3TQ8we0zd-13" target="rCbeNhPe30k3TQ8we0zd-24" edge="1">
                    <mxGeometry width="160" relative="1" as="geometry">
                        <mxPoint x="1710" y="-977" as="sourcePoint"/>
                        <mxPoint x="1740" y="-1017" as="targetPoint"/>
                    </mxGeometry>
                </mxCell>
                <mxCell id="rCbeNhPe30k3TQ8we0zd-38" value="Use" style="endArrow=open;endSize=12;dashed=1;html=1;rounded=0;exitX=0.25;exitY=0;exitDx=0;exitDy=0;entryX=1;entryY=0.5;entryDx=0;entryDy=0;" parent="1" source="rCbeNhPe30k3TQ8we0zd-19" target="rCbeNhPe30k3TQ8we0zd-26" edge="1">
                    <mxGeometry width="160" relative="1" as="geometry">
                        <mxPoint x="1540" y="-803" as="sourcePoint"/>
                        <mxPoint x="1700" y="-803" as="targetPoint"/>
                        <Array as="points">
                            <mxPoint x="1746" y="-807"/>
                            <mxPoint x="1650" y="-807"/>
                            <mxPoint x="1650" y="-957"/>
                        </Array>
                    </mxGeometry>
                </mxCell>
                <mxCell id="rCbeNhPe30k3TQ8we0zd-39" value="Use" style="endArrow=open;endSize=12;dashed=1;html=1;rounded=0;exitX=0.25;exitY=0;exitDx=0;exitDy=0;entryX=0;entryY=0.5;entryDx=0;entryDy=0;" parent="1" source="rCbeNhPe30k3TQ8we0zd-9" target="rCbeNhPe30k3TQ8we0zd-26" edge="1">
                    <mxGeometry width="160" relative="1" as="geometry">
                        <mxPoint x="1070" y="-677" as="sourcePoint"/>
                        <mxPoint x="1230" y="-677" as="targetPoint"/>
                        <Array as="points">
                            <mxPoint x="1414" y="-797"/>
                            <mxPoint x="1320" y="-797"/>
                            <mxPoint x="1320" y="-957"/>
                        </Array>
                    </mxGeometry>
                </mxCell>
            </root>
        </mxGraphModel>
    </diagram>
    <diagram id="MDo300wHwHcqloFelIvo" name="Backend: Calendar Microservice">
        <mxGraphModel dx="-232" dy="1878" grid="1" gridSize="10" guides="1" tooltips="1" connect="1" arrows="1" fold="1" page="1" pageScale="1" pageWidth="827" pageHeight="1169" math="0" shadow="0">
            <root>
                <mxCell id="0"/>
                <mxCell id="1" parent="0"/>
                <mxCell id="mT4ga3PU96-hkbaTqGsb-1" value="Calendar Microservice" style="shape=umlFrame;whiteSpace=wrap;html=1;width=140;height=43;" parent="1" vertex="1">
                    <mxGeometry x="1680" y="-1160" width="1190" height="593" as="geometry"/>
                </mxCell>
                <mxCell id="mT4ga3PU96-hkbaTqGsb-2" value="CalendarController" style="swimlane;fontStyle=1;align=center;verticalAlign=top;childLayout=stackLayout;horizontal=1;startSize=26;horizontalStack=0;resizeParent=1;resizeParentMax=0;resizeLast=0;collapsible=1;marginBottom=0;" parent="1" vertex="1">
                    <mxGeometry x="1930" y="-957" width="200" height="130" as="geometry"/>
                </mxCell>
                <mxCell id="mT4ga3PU96-hkbaTqGsb-3" value="- calService : ICalService" style="text;strokeColor=none;fillColor=none;align=left;verticalAlign=top;spacingLeft=4;spacingRight=4;overflow=hidden;rotatable=0;points=[[0,0.5],[1,0.5]];portConstraint=eastwest;" parent="mT4ga3PU96-hkbaTqGsb-2" vertex="1">
                    <mxGeometry y="26" width="200" height="26" as="geometry"/>
                </mxCell>
                <mxCell id="mT4ga3PU96-hkbaTqGsb-4" value="" style="line;strokeWidth=1;fillColor=none;align=left;verticalAlign=middle;spacingTop=-1;spacingLeft=3;spacingRight=3;rotatable=0;labelPosition=right;points=[];portConstraint=eastwest;" parent="mT4ga3PU96-hkbaTqGsb-2" vertex="1">
                    <mxGeometry y="52" width="200" height="8" as="geometry"/>
                </mxCell>
                <mxCell id="mT4ga3PU96-hkbaTqGsb-5" value="+ getAllEvents(String): List&lt;Event&gt;&#10;+ getEvent(Long): Event&#10;+ addEvent(Event): boolean&#10;+ updateEvent(Event): Event" style="text;strokeColor=none;fillColor=none;align=left;verticalAlign=top;spacingLeft=4;spacingRight=4;overflow=hidden;rotatable=0;points=[[0,0.5],[1,0.5]];portConstraint=eastwest;" parent="mT4ga3PU96-hkbaTqGsb-2" vertex="1">
                    <mxGeometry y="60" width="200" height="70" as="geometry"/>
                </mxCell>
                <mxCell id="mT4ga3PU96-hkbaTqGsb-6" value="CalendarMicroService" style="swimlane;fontStyle=1;align=center;verticalAlign=top;childLayout=stackLayout;horizontal=1;startSize=26;horizontalStack=0;resizeParent=1;resizeParentMax=0;resizeLast=0;collapsible=1;marginBottom=0;" parent="1" vertex="1">
                    <mxGeometry x="1720" y="-957" width="160" height="60" as="geometry"/>
                </mxCell>
                <mxCell id="mT4ga3PU96-hkbaTqGsb-7" value="" style="line;strokeWidth=1;fillColor=none;align=left;verticalAlign=middle;spacingTop=-1;spacingLeft=3;spacingRight=3;rotatable=0;labelPosition=right;points=[];portConstraint=eastwest;" parent="mT4ga3PU96-hkbaTqGsb-6" vertex="1">
                    <mxGeometry y="26" width="160" height="8" as="geometry"/>
                </mxCell>
                <mxCell id="mT4ga3PU96-hkbaTqGsb-8" value="+ main(String[]): void" style="text;strokeColor=none;fillColor=none;align=left;verticalAlign=top;spacingLeft=4;spacingRight=4;overflow=hidden;rotatable=0;points=[[0,0.5],[1,0.5]];portConstraint=eastwest;" parent="mT4ga3PU96-hkbaTqGsb-6" vertex="1">
                    <mxGeometry y="34" width="160" height="26" as="geometry"/>
                </mxCell>
                <mxCell id="mT4ga3PU96-hkbaTqGsb-9" value="CalService" style="swimlane;fontStyle=1;align=center;verticalAlign=top;childLayout=stackLayout;horizontal=1;startSize=26;horizontalStack=0;resizeParent=1;resizeParentMax=0;resizeLast=0;collapsible=1;marginBottom=0;" parent="1" vertex="1">
                    <mxGeometry x="2202.5" y="-771" width="205" height="150" as="geometry"/>
                </mxCell>
                <mxCell id="mT4ga3PU96-hkbaTqGsb-10" value="- calRepository: CalRepository" style="text;strokeColor=none;fillColor=none;align=left;verticalAlign=top;spacingLeft=4;spacingRight=4;overflow=hidden;rotatable=0;points=[[0,0.5],[1,0.5]];portConstraint=eastwest;" parent="mT4ga3PU96-hkbaTqGsb-9" vertex="1">
                    <mxGeometry y="26" width="205" height="26" as="geometry"/>
                </mxCell>
                <mxCell id="mT4ga3PU96-hkbaTqGsb-11" value="" style="line;strokeWidth=1;fillColor=none;align=left;verticalAlign=middle;spacingTop=-1;spacingLeft=3;spacingRight=3;rotatable=0;labelPosition=right;points=[];portConstraint=eastwest;" parent="mT4ga3PU96-hkbaTqGsb-9" vertex="1">
                    <mxGeometry y="52" width="205" height="8" as="geometry"/>
                </mxCell>
                <mxCell id="mT4ga3PU96-hkbaTqGsb-12" value="+ getAllEvents(String): List&lt;Event&gt;&#10;+ getEvent(Long): Event&#10;+ addEvent(Event): boolean&#10;+ updateEvent(Event): Event" style="text;strokeColor=none;fillColor=none;align=left;verticalAlign=top;spacingLeft=4;spacingRight=4;overflow=hidden;rotatable=0;points=[[0,0.5],[1,0.5]];portConstraint=eastwest;" parent="mT4ga3PU96-hkbaTqGsb-9" vertex="1">
                    <mxGeometry y="60" width="205" height="90" as="geometry"/>
                </mxCell>
                <mxCell id="mT4ga3PU96-hkbaTqGsb-13" value="&lt;&lt;interface&gt;&gt; SpringCalRepository" style="swimlane;fontStyle=1;align=center;verticalAlign=top;childLayout=stackLayout;horizontal=1;startSize=26;horizontalStack=0;resizeParent=1;resizeParentMax=0;resizeLast=0;collapsible=1;marginBottom=0;" parent="1" vertex="1">
                    <mxGeometry x="2532.5" y="-957" width="250" height="110" as="geometry"/>
                </mxCell>
                <mxCell id="mT4ga3PU96-hkbaTqGsb-14" value="" style="line;strokeWidth=1;fillColor=none;align=left;verticalAlign=middle;spacingTop=-1;spacingLeft=3;spacingRight=3;rotatable=0;labelPosition=right;points=[];portConstraint=eastwest;" parent="mT4ga3PU96-hkbaTqGsb-13" vertex="1">
                    <mxGeometry y="26" width="250" height="8" as="geometry"/>
                </mxCell>
                <mxCell id="mT4ga3PU96-hkbaTqGsb-15" value="+ findAll(): List&lt;Event&gt;&#10;+ findById(Long): Event&#10;+ add(Event): boolean&#10;+ updateEvent(Event): Event" style="text;strokeColor=none;fillColor=none;align=left;verticalAlign=top;spacingLeft=4;spacingRight=4;overflow=hidden;rotatable=0;points=[[0,0.5],[1,0.5]];portConstraint=eastwest;" parent="mT4ga3PU96-hkbaTqGsb-13" vertex="1">
                    <mxGeometry y="34" width="250" height="76" as="geometry"/>
                </mxCell>
                <mxCell id="mT4ga3PU96-hkbaTqGsb-16" value="&lt;&lt;interface&gt;&gt; ICalService" style="swimlane;fontStyle=1;align=center;verticalAlign=top;childLayout=stackLayout;horizontal=1;startSize=26;horizontalStack=0;resizeParent=1;resizeParentMax=0;resizeLast=0;collapsible=1;marginBottom=0;" parent="1" vertex="1">
                    <mxGeometry x="2200" y="-957" width="210" height="124" as="geometry"/>
                </mxCell>
                <mxCell id="mT4ga3PU96-hkbaTqGsb-17" value="" style="line;strokeWidth=1;fillColor=none;align=left;verticalAlign=middle;spacingTop=-1;spacingLeft=3;spacingRight=3;rotatable=0;labelPosition=right;points=[];portConstraint=eastwest;" parent="mT4ga3PU96-hkbaTqGsb-16" vertex="1">
                    <mxGeometry y="26" width="210" height="8" as="geometry"/>
                </mxCell>
                <mxCell id="mT4ga3PU96-hkbaTqGsb-18" value="+ getAllEvents(String): List&lt;Event&gt;&#10;+ getEvent(Long): Event&#10;+ addEvent(Event): boolean&#10;+ updateEvent(Event): Event" style="text;strokeColor=none;fillColor=none;align=left;verticalAlign=top;spacingLeft=4;spacingRight=4;overflow=hidden;rotatable=0;points=[[0,0.5],[1,0.5]];portConstraint=eastwest;" parent="mT4ga3PU96-hkbaTqGsb-16" vertex="1">
                    <mxGeometry y="34" width="210" height="90" as="geometry"/>
                </mxCell>
                <mxCell id="mT4ga3PU96-hkbaTqGsb-19" value="CalRepository" style="swimlane;fontStyle=1;align=center;verticalAlign=top;childLayout=stackLayout;horizontal=1;startSize=26;horizontalStack=0;resizeParent=1;resizeParentMax=0;resizeLast=0;collapsible=1;marginBottom=0;" parent="1" vertex="1">
                    <mxGeometry x="2515" y="-771" width="285" height="150" as="geometry"/>
                </mxCell>
                <mxCell id="mT4ga3PU96-hkbaTqGsb-20" value="- springCalRepository: SpringCalRepository" style="text;strokeColor=none;fillColor=none;align=left;verticalAlign=top;spacingLeft=4;spacingRight=4;overflow=hidden;rotatable=0;points=[[0,0.5],[1,0.5]];portConstraint=eastwest;" parent="mT4ga3PU96-hkbaTqGsb-19" vertex="1">
                    <mxGeometry y="26" width="285" height="26" as="geometry"/>
                </mxCell>
                <mxCell id="mT4ga3PU96-hkbaTqGsb-21" value="" style="line;strokeWidth=1;fillColor=none;align=left;verticalAlign=middle;spacingTop=-1;spacingLeft=3;spacingRight=3;rotatable=0;labelPosition=right;points=[];portConstraint=eastwest;" parent="mT4ga3PU96-hkbaTqGsb-19" vertex="1">
                    <mxGeometry y="52" width="285" height="8" as="geometry"/>
                </mxCell>
                <mxCell id="mT4ga3PU96-hkbaTqGsb-22" value="+ findAll(): List&lt;Event&gt;&#10;+ findById(Long): Event&#10;+ add(Event): boolean&#10;+ updateEvent(Event): Event" style="text;strokeColor=none;fillColor=none;align=left;verticalAlign=top;spacingLeft=4;spacingRight=4;overflow=hidden;rotatable=0;points=[[0,0.5],[1,0.5]];portConstraint=eastwest;" parent="mT4ga3PU96-hkbaTqGsb-19" vertex="1">
                    <mxGeometry y="60" width="285" height="90" as="geometry"/>
                </mxCell>
                <mxCell id="mT4ga3PU96-hkbaTqGsb-23" value="Event" style="swimlane;fontStyle=1;align=center;verticalAlign=top;childLayout=stackLayout;horizontal=1;startSize=26;horizontalStack=0;resizeParent=1;resizeParentMax=0;resizeLast=0;collapsible=1;marginBottom=0;" parent="1" vertex="1">
                    <mxGeometry x="2225" y="-1142" width="160" height="154" as="geometry"/>
                </mxCell>
                <mxCell id="mT4ga3PU96-hkbaTqGsb-24" value="- id: Long&#10;- title: String&#10;- description: String&#10;- start: DateTime&#10;- end: DateTime&#10;- type: String" style="text;strokeColor=none;fillColor=none;align=left;verticalAlign=top;spacingLeft=4;spacingRight=4;overflow=hidden;rotatable=0;points=[[0,0.5],[1,0.5]];portConstraint=eastwest;" parent="mT4ga3PU96-hkbaTqGsb-23" vertex="1">
                    <mxGeometry y="26" width="160" height="94" as="geometry"/>
                </mxCell>
                <mxCell id="mT4ga3PU96-hkbaTqGsb-25" value="" style="line;strokeWidth=1;fillColor=none;align=left;verticalAlign=middle;spacingTop=-1;spacingLeft=3;spacingRight=3;rotatable=0;labelPosition=right;points=[];portConstraint=eastwest;" parent="mT4ga3PU96-hkbaTqGsb-23" vertex="1">
                    <mxGeometry y="120" width="160" height="8" as="geometry"/>
                </mxCell>
                <mxCell id="mT4ga3PU96-hkbaTqGsb-26" value="+ getter / setter" style="text;strokeColor=none;fillColor=none;align=left;verticalAlign=top;spacingLeft=4;spacingRight=4;overflow=hidden;rotatable=0;points=[[0,0.5],[1,0.5]];portConstraint=eastwest;" parent="mT4ga3PU96-hkbaTqGsb-23" vertex="1">
                    <mxGeometry y="128" width="160" height="26" as="geometry"/>
                </mxCell>
                <mxCell id="mT4ga3PU96-hkbaTqGsb-27" value="" style="endArrow=diamondThin;endFill=1;endSize=24;html=1;rounded=0;exitX=1;exitY=0.5;exitDx=0;exitDy=0;entryX=0;entryY=0.154;entryDx=0;entryDy=0;entryPerimeter=0;" parent="1" source="mT4ga3PU96-hkbaTqGsb-6" target="mT4ga3PU96-hkbaTqGsb-3" edge="1">
                    <mxGeometry width="160" relative="1" as="geometry">
                        <mxPoint x="1900" y="-927.5" as="sourcePoint"/>
                        <mxPoint x="2060" y="-927.5" as="targetPoint"/>
                    </mxGeometry>
                </mxCell>
                <mxCell id="mT4ga3PU96-hkbaTqGsb-28" value="" style="endArrow=diamondThin;endFill=1;endSize=24;html=1;rounded=0;exitX=1;exitY=0.5;exitDx=0;exitDy=0;entryX=0;entryY=0.25;entryDx=0;entryDy=0;" parent="1" source="mT4ga3PU96-hkbaTqGsb-3" target="mT4ga3PU96-hkbaTqGsb-16" edge="1">
                    <mxGeometry width="160" relative="1" as="geometry">
                        <mxPoint x="2140" y="-907" as="sourcePoint"/>
                        <mxPoint x="2300" y="-907" as="targetPoint"/>
                    </mxGeometry>
                </mxCell>
                <mxCell id="mT4ga3PU96-hkbaTqGsb-29" value="" style="endArrow=block;dashed=1;endFill=0;endSize=12;html=1;rounded=0;entryX=0.5;entryY=1;entryDx=0;entryDy=0;entryPerimeter=0;exitX=0.5;exitY=0;exitDx=0;exitDy=0;" parent="1" source="mT4ga3PU96-hkbaTqGsb-9" target="mT4ga3PU96-hkbaTqGsb-18" edge="1">
                    <mxGeometry width="160" relative="1" as="geometry">
                        <mxPoint x="1830" y="-667" as="sourcePoint"/>
                        <mxPoint x="1990" y="-667" as="targetPoint"/>
                    </mxGeometry>
                </mxCell>
                <mxCell id="mT4ga3PU96-hkbaTqGsb-30" value="" style="endArrow=diamondThin;endFill=1;endSize=24;html=1;rounded=0;entryX=0.5;entryY=1.115;entryDx=0;entryDy=0;entryPerimeter=0;exitX=0.5;exitY=0;exitDx=0;exitDy=0;" parent="1" source="mT4ga3PU96-hkbaTqGsb-19" target="mT4ga3PU96-hkbaTqGsb-15" edge="1">
                    <mxGeometry width="160" relative="1" as="geometry">
                        <mxPoint x="2420" y="-652" as="sourcePoint"/>
                        <mxPoint x="2580" y="-652" as="targetPoint"/>
                    </mxGeometry>
                </mxCell>
                <mxCell id="mT4ga3PU96-hkbaTqGsb-31" value="" style="endArrow=diamondThin;endFill=1;endSize=24;html=1;rounded=0;exitX=1;exitY=0.5;exitDx=0;exitDy=0;entryX=0;entryY=0.25;entryDx=0;entryDy=0;" parent="1" source="mT4ga3PU96-hkbaTqGsb-10" target="mT4ga3PU96-hkbaTqGsb-19" edge="1">
                    <mxGeometry width="160" relative="1" as="geometry">
                        <mxPoint x="2400" y="-647" as="sourcePoint"/>
                        <mxPoint x="2560" y="-647" as="targetPoint"/>
                    </mxGeometry>
                </mxCell>
                <mxCell id="mT4ga3PU96-hkbaTqGsb-32" value="&lt;&lt;interface&gt;&gt; JpaRepository" style="swimlane;fontStyle=1;align=center;verticalAlign=top;childLayout=stackLayout;horizontal=1;startSize=26;horizontalStack=0;resizeParent=1;resizeParentMax=0;resizeLast=0;collapsible=1;marginBottom=0;" parent="1" vertex="1">
                    <mxGeometry x="2470" y="-1107" width="250" height="34" as="geometry"/>
                </mxCell>
                <mxCell id="mT4ga3PU96-hkbaTqGsb-33" value="" style="line;strokeWidth=1;fillColor=none;align=left;verticalAlign=middle;spacingTop=-1;spacingLeft=3;spacingRight=3;rotatable=0;labelPosition=right;points=[];portConstraint=eastwest;" parent="mT4ga3PU96-hkbaTqGsb-32" vertex="1">
                    <mxGeometry y="26" width="250" height="8" as="geometry"/>
                </mxCell>
                <mxCell id="mT4ga3PU96-hkbaTqGsb-34" value="Extends" style="endArrow=block;endSize=16;endFill=0;html=1;rounded=0;exitX=0.5;exitY=0;exitDx=0;exitDy=0;entryX=0.5;entryY=1;entryDx=0;entryDy=0;" parent="1" source="mT4ga3PU96-hkbaTqGsb-13" target="mT4ga3PU96-hkbaTqGsb-32" edge="1">
                    <mxGeometry width="160" relative="1" as="geometry">
                        <mxPoint x="2540" y="-1017" as="sourcePoint"/>
                        <mxPoint x="2700" y="-1017" as="targetPoint"/>
                    </mxGeometry>
                </mxCell>
                <mxCell id="mT4ga3PU96-hkbaTqGsb-35" value="Use" style="endArrow=open;endSize=12;dashed=1;html=1;rounded=0;exitX=0.5;exitY=0;exitDx=0;exitDy=0;entryX=0;entryY=0.25;entryDx=0;entryDy=0;" parent="1" source="mT4ga3PU96-hkbaTqGsb-2" target="mT4ga3PU96-hkbaTqGsb-23" edge="1">
                    <mxGeometry width="160" relative="1" as="geometry">
                        <mxPoint x="2090" y="-1027" as="sourcePoint"/>
                        <mxPoint x="2250" y="-1027" as="targetPoint"/>
                    </mxGeometry>
                </mxCell>
                <mxCell id="mT4ga3PU96-hkbaTqGsb-36" value="Use" style="endArrow=open;endSize=12;dashed=1;html=1;rounded=0;exitX=0.5;exitY=0;exitDx=0;exitDy=0;entryX=0.5;entryY=1;entryDx=0;entryDy=0;entryPerimeter=0;" parent="1" source="mT4ga3PU96-hkbaTqGsb-16" target="mT4ga3PU96-hkbaTqGsb-26" edge="1">
                    <mxGeometry width="160" relative="1" as="geometry">
                        <mxPoint x="2260" y="-987" as="sourcePoint"/>
                        <mxPoint x="2420" y="-987" as="targetPoint"/>
                    </mxGeometry>
                </mxCell>
                <mxCell id="mT4ga3PU96-hkbaTqGsb-37" value="Use" style="endArrow=open;endSize=12;dashed=1;html=1;rounded=0;exitX=0.25;exitY=0;exitDx=0;exitDy=0;entryX=1;entryY=0.5;entryDx=0;entryDy=0;" parent="1" source="mT4ga3PU96-hkbaTqGsb-13" target="mT4ga3PU96-hkbaTqGsb-24" edge="1">
                    <mxGeometry width="160" relative="1" as="geometry">
                        <mxPoint x="2550" y="-977" as="sourcePoint"/>
                        <mxPoint x="2580" y="-1017" as="targetPoint"/>
                    </mxGeometry>
                </mxCell>
                <mxCell id="mT4ga3PU96-hkbaTqGsb-38" value="Use" style="endArrow=open;endSize=12;dashed=1;html=1;rounded=0;exitX=0.25;exitY=0;exitDx=0;exitDy=0;entryX=1;entryY=0.5;entryDx=0;entryDy=0;" parent="1" source="mT4ga3PU96-hkbaTqGsb-19" target="mT4ga3PU96-hkbaTqGsb-26" edge="1">
                    <mxGeometry width="160" relative="1" as="geometry">
                        <mxPoint x="2380" y="-803" as="sourcePoint"/>
                        <mxPoint x="2540" y="-803" as="targetPoint"/>
                        <Array as="points">
                            <mxPoint x="2586" y="-807"/>
                            <mxPoint x="2490" y="-807"/>
                            <mxPoint x="2490" y="-957"/>
                        </Array>
                    </mxGeometry>
                </mxCell>
                <mxCell id="mT4ga3PU96-hkbaTqGsb-39" value="Use" style="endArrow=open;endSize=12;dashed=1;html=1;rounded=0;exitX=0.25;exitY=0;exitDx=0;exitDy=0;entryX=0;entryY=0.5;entryDx=0;entryDy=0;" parent="1" source="mT4ga3PU96-hkbaTqGsb-9" target="mT4ga3PU96-hkbaTqGsb-26" edge="1">
                    <mxGeometry width="160" relative="1" as="geometry">
                        <mxPoint x="1910" y="-677" as="sourcePoint"/>
                        <mxPoint x="2070" y="-677" as="targetPoint"/>
                        <Array as="points">
                            <mxPoint x="2254" y="-797"/>
                            <mxPoint x="2160" y="-797"/>
                            <mxPoint x="2160" y="-957"/>
                        </Array>
                    </mxGeometry>
                </mxCell>
            </root>
        </mxGraphModel>
    </diagram>
    <diagram id="wgPmfqq_e90rL5FcrLKo" name="Backend: Canteen Microservice">
        <mxGraphModel dx="-1203" dy="1799" grid="1" gridSize="10" guides="1" tooltips="1" connect="1" arrows="1" fold="1" page="1" pageScale="1" pageWidth="827" pageHeight="1169" math="0" shadow="0">
            <root>
                <mxCell id="0"/>
                <mxCell id="1" parent="0"/>
                <mxCell id="uyDFtkW-uwmR9LiVv7iG-1" value="Canteen Microservice" style="shape=umlFrame;whiteSpace=wrap;html=1;width=140;height=43;" parent="1" vertex="1">
                    <mxGeometry x="1680" y="-1160" width="1190" height="593" as="geometry"/>
                </mxCell>
                <mxCell id="uyDFtkW-uwmR9LiVv7iG-2" value="CanteenController" style="swimlane;fontStyle=1;align=center;verticalAlign=top;childLayout=stackLayout;horizontal=1;startSize=26;horizontalStack=0;resizeParent=1;resizeParentMax=0;resizeLast=0;collapsible=1;marginBottom=0;" parent="1" vertex="1">
                    <mxGeometry x="1900" y="-957" width="240" height="130" as="geometry"/>
                </mxCell>
                <mxCell id="uyDFtkW-uwmR9LiVv7iG-3" value="- canService : ICanteenService" style="text;strokeColor=none;fillColor=none;align=left;verticalAlign=top;spacingLeft=4;spacingRight=4;overflow=hidden;rotatable=0;points=[[0,0.5],[1,0.5]];portConstraint=eastwest;" parent="uyDFtkW-uwmR9LiVv7iG-2" vertex="1">
                    <mxGeometry y="26" width="240" height="26" as="geometry"/>
                </mxCell>
                <mxCell id="uyDFtkW-uwmR9LiVv7iG-4" value="" style="line;strokeWidth=1;fillColor=none;align=left;verticalAlign=middle;spacingTop=-1;spacingLeft=3;spacingRight=3;rotatable=0;labelPosition=right;points=[];portConstraint=eastwest;" parent="uyDFtkW-uwmR9LiVv7iG-2" vertex="1">
                    <mxGeometry y="52" width="240" height="8" as="geometry"/>
                </mxCell>
                <mxCell id="uyDFtkW-uwmR9LiVv7iG-5" value="+ getWeeksMenu(Date): List&lt;DailyMenu&gt;&#10;+ getDailyMenu(Date): DailyMenu" style="text;strokeColor=none;fillColor=none;align=left;verticalAlign=top;spacingLeft=4;spacingRight=4;overflow=hidden;rotatable=0;points=[[0,0.5],[1,0.5]];portConstraint=eastwest;" parent="uyDFtkW-uwmR9LiVv7iG-2" vertex="1">
                    <mxGeometry y="60" width="240" height="70" as="geometry"/>
                </mxCell>
                <mxCell id="uyDFtkW-uwmR9LiVv7iG-6" value="CanteenMicroService" style="swimlane;fontStyle=1;align=center;verticalAlign=top;childLayout=stackLayout;horizontal=1;startSize=26;horizontalStack=0;resizeParent=1;resizeParentMax=0;resizeLast=0;collapsible=1;marginBottom=0;" parent="1" vertex="1">
                    <mxGeometry x="1700" y="-957" width="160" height="60" as="geometry"/>
                </mxCell>
                <mxCell id="uyDFtkW-uwmR9LiVv7iG-7" value="" style="line;strokeWidth=1;fillColor=none;align=left;verticalAlign=middle;spacingTop=-1;spacingLeft=3;spacingRight=3;rotatable=0;labelPosition=right;points=[];portConstraint=eastwest;" parent="uyDFtkW-uwmR9LiVv7iG-6" vertex="1">
                    <mxGeometry y="26" width="160" height="8" as="geometry"/>
                </mxCell>
                <mxCell id="uyDFtkW-uwmR9LiVv7iG-8" value="+ main(String[]): void" style="text;strokeColor=none;fillColor=none;align=left;verticalAlign=top;spacingLeft=4;spacingRight=4;overflow=hidden;rotatable=0;points=[[0,0.5],[1,0.5]];portConstraint=eastwest;" parent="uyDFtkW-uwmR9LiVv7iG-6" vertex="1">
                    <mxGeometry y="34" width="160" height="26" as="geometry"/>
                </mxCell>
                <mxCell id="uyDFtkW-uwmR9LiVv7iG-9" value="CanteenService" style="swimlane;fontStyle=1;align=center;verticalAlign=top;childLayout=stackLayout;horizontal=1;startSize=26;horizontalStack=0;resizeParent=1;resizeParentMax=0;resizeLast=0;collapsible=1;marginBottom=0;" parent="1" vertex="1">
                    <mxGeometry x="2150" y="-771" width="257.5" height="150" as="geometry"/>
                </mxCell>
                <mxCell id="uyDFtkW-uwmR9LiVv7iG-10" value="- canRepository: CanteenRepository" style="text;strokeColor=none;fillColor=none;align=left;verticalAlign=top;spacingLeft=4;spacingRight=4;overflow=hidden;rotatable=0;points=[[0,0.5],[1,0.5]];portConstraint=eastwest;" parent="uyDFtkW-uwmR9LiVv7iG-9" vertex="1">
                    <mxGeometry y="26" width="257.5" height="26" as="geometry"/>
                </mxCell>
                <mxCell id="uyDFtkW-uwmR9LiVv7iG-11" value="" style="line;strokeWidth=1;fillColor=none;align=left;verticalAlign=middle;spacingTop=-1;spacingLeft=3;spacingRight=3;rotatable=0;labelPosition=right;points=[];portConstraint=eastwest;" parent="uyDFtkW-uwmR9LiVv7iG-9" vertex="1">
                    <mxGeometry y="52" width="257.5" height="8" as="geometry"/>
                </mxCell>
                <mxCell id="uyDFtkW-uwmR9LiVv7iG-12" value="+ getWeeksMenu(Date): List&lt;DailyMenu&gt;&#10;+ getDailyMenu(Date): DailyMenu&#10;+ updateCanteenData(): void" style="text;strokeColor=none;fillColor=none;align=left;verticalAlign=top;spacingLeft=4;spacingRight=4;overflow=hidden;rotatable=0;points=[[0,0.5],[1,0.5]];portConstraint=eastwest;" parent="uyDFtkW-uwmR9LiVv7iG-9" vertex="1">
                    <mxGeometry y="60" width="257.5" height="90" as="geometry"/>
                </mxCell>
                <mxCell id="uyDFtkW-uwmR9LiVv7iG-13" value="&lt;&lt;interface&gt;&gt; SpringCanteenRepository" style="swimlane;fontStyle=1;align=center;verticalAlign=top;childLayout=stackLayout;horizontal=1;startSize=26;horizontalStack=0;resizeParent=1;resizeParentMax=0;resizeLast=0;collapsible=1;marginBottom=0;" parent="1" vertex="1">
                    <mxGeometry x="2532.5" y="-957" width="250" height="110" as="geometry"/>
                </mxCell>
                <mxCell id="uyDFtkW-uwmR9LiVv7iG-14" value="" style="line;strokeWidth=1;fillColor=none;align=left;verticalAlign=middle;spacingTop=-1;spacingLeft=3;spacingRight=3;rotatable=0;labelPosition=right;points=[];portConstraint=eastwest;" parent="uyDFtkW-uwmR9LiVv7iG-13" vertex="1">
                    <mxGeometry y="26" width="250" height="8" as="geometry"/>
                </mxCell>
                <mxCell id="uyDFtkW-uwmR9LiVv7iG-15" value="+ findAll(): List&lt;DailyMenu&gt;&#10;+ findById(Long): DailyMenu&#10;+ add(DailyMenu): boolean&#10;+ updateDailyMenu(DailyMenu): DailyMenu" style="text;strokeColor=none;fillColor=none;align=left;verticalAlign=top;spacingLeft=4;spacingRight=4;overflow=hidden;rotatable=0;points=[[0,0.5],[1,0.5]];portConstraint=eastwest;" parent="uyDFtkW-uwmR9LiVv7iG-13" vertex="1">
                    <mxGeometry y="34" width="250" height="76" as="geometry"/>
                </mxCell>
                <mxCell id="uyDFtkW-uwmR9LiVv7iG-16" value="&lt;&lt;interface&gt;&gt; ICanteenService" style="swimlane;fontStyle=1;align=center;verticalAlign=top;childLayout=stackLayout;horizontal=1;startSize=26;horizontalStack=0;resizeParent=1;resizeParentMax=0;resizeLast=0;collapsible=1;marginBottom=0;" parent="1" vertex="1">
                    <mxGeometry x="2200" y="-957" width="250" height="124" as="geometry"/>
                </mxCell>
                <mxCell id="uyDFtkW-uwmR9LiVv7iG-17" value="" style="line;strokeWidth=1;fillColor=none;align=left;verticalAlign=middle;spacingTop=-1;spacingLeft=3;spacingRight=3;rotatable=0;labelPosition=right;points=[];portConstraint=eastwest;" parent="uyDFtkW-uwmR9LiVv7iG-16" vertex="1">
                    <mxGeometry y="26" width="250" height="8" as="geometry"/>
                </mxCell>
                <mxCell id="uyDFtkW-uwmR9LiVv7iG-18" value="+ getWeeksMenu(Date): List&lt;DailyMenu&gt;&#10;+ getDailyMenu(Date): DailyMenu&#10;+ updateCanteenData(): void" style="text;strokeColor=none;fillColor=none;align=left;verticalAlign=top;spacingLeft=4;spacingRight=4;overflow=hidden;rotatable=0;points=[[0,0.5],[1,0.5]];portConstraint=eastwest;" parent="uyDFtkW-uwmR9LiVv7iG-16" vertex="1">
                    <mxGeometry y="34" width="250" height="90" as="geometry"/>
                </mxCell>
                <mxCell id="uyDFtkW-uwmR9LiVv7iG-19" value="CanteenRepository" style="swimlane;fontStyle=1;align=center;verticalAlign=top;childLayout=stackLayout;horizontal=1;startSize=26;horizontalStack=0;resizeParent=1;resizeParentMax=0;resizeLast=0;collapsible=1;marginBottom=0;" parent="1" vertex="1">
                    <mxGeometry x="2515" y="-771" width="285" height="150" as="geometry"/>
                </mxCell>
                <mxCell id="uyDFtkW-uwmR9LiVv7iG-20" value="- springCanRepository: SpringCanteenRepository" style="text;strokeColor=none;fillColor=none;align=left;verticalAlign=top;spacingLeft=4;spacingRight=4;overflow=hidden;rotatable=0;points=[[0,0.5],[1,0.5]];portConstraint=eastwest;" parent="uyDFtkW-uwmR9LiVv7iG-19" vertex="1">
                    <mxGeometry y="26" width="285" height="26" as="geometry"/>
                </mxCell>
                <mxCell id="uyDFtkW-uwmR9LiVv7iG-21" value="" style="line;strokeWidth=1;fillColor=none;align=left;verticalAlign=middle;spacingTop=-1;spacingLeft=3;spacingRight=3;rotatable=0;labelPosition=right;points=[];portConstraint=eastwest;" parent="uyDFtkW-uwmR9LiVv7iG-19" vertex="1">
                    <mxGeometry y="52" width="285" height="8" as="geometry"/>
                </mxCell>
                <mxCell id="uyDFtkW-uwmR9LiVv7iG-22" value="+ findAll(): List&lt;DailyMenu&gt;&#10;+ findById(Long): DailyMenu&#10;+ add(DailyMenu): boolean&#10;+ updateDailyMenu(DailyMenu): DailyMenu" style="text;strokeColor=none;fillColor=none;align=left;verticalAlign=top;spacingLeft=4;spacingRight=4;overflow=hidden;rotatable=0;points=[[0,0.5],[1,0.5]];portConstraint=eastwest;" parent="uyDFtkW-uwmR9LiVv7iG-19" vertex="1">
                    <mxGeometry y="60" width="285" height="90" as="geometry"/>
                </mxCell>
                <mxCell id="uyDFtkW-uwmR9LiVv7iG-23" value="DailyMenu" style="swimlane;fontStyle=1;align=center;verticalAlign=top;childLayout=stackLayout;horizontal=1;startSize=26;horizontalStack=0;resizeParent=1;resizeParentMax=0;resizeLast=0;collapsible=1;marginBottom=0;" parent="1" vertex="1">
                    <mxGeometry x="2225" y="-1142" width="160" height="154" as="geometry"/>
                </mxCell>
                <mxCell id="uyDFtkW-uwmR9LiVv7iG-24" value="- id: Long&#10;- canteen: String&#10;- day: Date&#10;- options: List&lt;MenuOption&gt;" style="text;strokeColor=none;fillColor=none;align=left;verticalAlign=top;spacingLeft=4;spacingRight=4;overflow=hidden;rotatable=0;points=[[0,0.5],[1,0.5]];portConstraint=eastwest;" parent="uyDFtkW-uwmR9LiVv7iG-23" vertex="1">
                    <mxGeometry y="26" width="160" height="94" as="geometry"/>
                </mxCell>
                <mxCell id="uyDFtkW-uwmR9LiVv7iG-25" value="" style="line;strokeWidth=1;fillColor=none;align=left;verticalAlign=middle;spacingTop=-1;spacingLeft=3;spacingRight=3;rotatable=0;labelPosition=right;points=[];portConstraint=eastwest;" parent="uyDFtkW-uwmR9LiVv7iG-23" vertex="1">
                    <mxGeometry y="120" width="160" height="8" as="geometry"/>
                </mxCell>
                <mxCell id="uyDFtkW-uwmR9LiVv7iG-26" value="+ getter / setter" style="text;strokeColor=none;fillColor=none;align=left;verticalAlign=top;spacingLeft=4;spacingRight=4;overflow=hidden;rotatable=0;points=[[0,0.5],[1,0.5]];portConstraint=eastwest;" parent="uyDFtkW-uwmR9LiVv7iG-23" vertex="1">
                    <mxGeometry y="128" width="160" height="26" as="geometry"/>
                </mxCell>
                <mxCell id="uyDFtkW-uwmR9LiVv7iG-27" value="" style="endArrow=diamondThin;endFill=1;endSize=24;html=1;rounded=0;exitX=1;exitY=0.5;exitDx=0;exitDy=0;entryX=0;entryY=0.154;entryDx=0;entryDy=0;entryPerimeter=0;" parent="1" source="uyDFtkW-uwmR9LiVv7iG-6" target="uyDFtkW-uwmR9LiVv7iG-3" edge="1">
                    <mxGeometry width="160" relative="1" as="geometry">
                        <mxPoint x="1900" y="-927.5" as="sourcePoint"/>
                        <mxPoint x="2060" y="-927.5" as="targetPoint"/>
                    </mxGeometry>
                </mxCell>
                <mxCell id="uyDFtkW-uwmR9LiVv7iG-28" value="" style="endArrow=diamondThin;endFill=1;endSize=24;html=1;rounded=0;exitX=1;exitY=0.5;exitDx=0;exitDy=0;entryX=0;entryY=0.25;entryDx=0;entryDy=0;" parent="1" source="uyDFtkW-uwmR9LiVv7iG-3" target="uyDFtkW-uwmR9LiVv7iG-16" edge="1">
                    <mxGeometry width="160" relative="1" as="geometry">
                        <mxPoint x="2140" y="-907" as="sourcePoint"/>
                        <mxPoint x="2300" y="-907" as="targetPoint"/>
                    </mxGeometry>
                </mxCell>
                <mxCell id="uyDFtkW-uwmR9LiVv7iG-29" value="" style="endArrow=block;dashed=1;endFill=0;endSize=12;html=1;rounded=0;entryX=0.5;entryY=1;entryDx=0;entryDy=0;entryPerimeter=0;exitX=0.5;exitY=0;exitDx=0;exitDy=0;" parent="1" source="uyDFtkW-uwmR9LiVv7iG-9" target="uyDFtkW-uwmR9LiVv7iG-18" edge="1">
                    <mxGeometry width="160" relative="1" as="geometry">
                        <mxPoint x="1830" y="-667" as="sourcePoint"/>
                        <mxPoint x="1990" y="-667" as="targetPoint"/>
                    </mxGeometry>
                </mxCell>
                <mxCell id="uyDFtkW-uwmR9LiVv7iG-30" value="" style="endArrow=diamondThin;endFill=1;endSize=24;html=1;rounded=0;entryX=0.498;entryY=0.987;entryDx=0;entryDy=0;entryPerimeter=0;exitX=0.5;exitY=0;exitDx=0;exitDy=0;" parent="1" source="uyDFtkW-uwmR9LiVv7iG-19" target="uyDFtkW-uwmR9LiVv7iG-15" edge="1">
                    <mxGeometry width="160" relative="1" as="geometry">
                        <mxPoint x="2420" y="-652" as="sourcePoint"/>
                        <mxPoint x="2580" y="-652" as="targetPoint"/>
                    </mxGeometry>
                </mxCell>
                <mxCell id="uyDFtkW-uwmR9LiVv7iG-31" value="" style="endArrow=diamondThin;endFill=1;endSize=24;html=1;rounded=0;exitX=1;exitY=0.5;exitDx=0;exitDy=0;entryX=0;entryY=0.25;entryDx=0;entryDy=0;" parent="1" source="uyDFtkW-uwmR9LiVv7iG-10" target="uyDFtkW-uwmR9LiVv7iG-19" edge="1">
                    <mxGeometry width="160" relative="1" as="geometry">
                        <mxPoint x="2400" y="-647" as="sourcePoint"/>
                        <mxPoint x="2560" y="-647" as="targetPoint"/>
                    </mxGeometry>
                </mxCell>
                <mxCell id="uyDFtkW-uwmR9LiVv7iG-32" value="&lt;&lt;interface&gt;&gt; JpaRepository" style="swimlane;fontStyle=1;align=center;verticalAlign=top;childLayout=stackLayout;horizontal=1;startSize=26;horizontalStack=0;resizeParent=1;resizeParentMax=0;resizeLast=0;collapsible=1;marginBottom=0;" parent="1" vertex="1">
                    <mxGeometry x="2470" y="-1107" width="250" height="34" as="geometry"/>
                </mxCell>
                <mxCell id="uyDFtkW-uwmR9LiVv7iG-33" value="" style="line;strokeWidth=1;fillColor=none;align=left;verticalAlign=middle;spacingTop=-1;spacingLeft=3;spacingRight=3;rotatable=0;labelPosition=right;points=[];portConstraint=eastwest;" parent="uyDFtkW-uwmR9LiVv7iG-32" vertex="1">
                    <mxGeometry y="26" width="250" height="8" as="geometry"/>
                </mxCell>
                <mxCell id="uyDFtkW-uwmR9LiVv7iG-34" value="Extends" style="endArrow=block;endSize=16;endFill=0;html=1;rounded=0;exitX=0.5;exitY=0;exitDx=0;exitDy=0;entryX=0.5;entryY=1;entryDx=0;entryDy=0;" parent="1" source="uyDFtkW-uwmR9LiVv7iG-13" target="uyDFtkW-uwmR9LiVv7iG-32" edge="1">
                    <mxGeometry width="160" relative="1" as="geometry">
                        <mxPoint x="2540" y="-1017" as="sourcePoint"/>
                        <mxPoint x="2700" y="-1017" as="targetPoint"/>
                    </mxGeometry>
                </mxCell>
                <mxCell id="uyDFtkW-uwmR9LiVv7iG-35" value="Use" style="endArrow=open;endSize=12;dashed=1;html=1;rounded=0;exitX=0.5;exitY=0;exitDx=0;exitDy=0;entryX=0;entryY=0.862;entryDx=0;entryDy=0;entryPerimeter=0;" parent="1" source="uyDFtkW-uwmR9LiVv7iG-2" target="uyDFtkW-uwmR9LiVv7iG-24" edge="1">
                    <mxGeometry width="160" relative="1" as="geometry">
                        <mxPoint x="2090" y="-1027" as="sourcePoint"/>
                        <mxPoint x="2250" y="-1027" as="targetPoint"/>
                    </mxGeometry>
                </mxCell>
                <mxCell id="uyDFtkW-uwmR9LiVv7iG-36" value="Use" style="endArrow=open;endSize=12;dashed=1;html=1;rounded=0;exitX=0.5;exitY=0;exitDx=0;exitDy=0;entryX=0.5;entryY=1;entryDx=0;entryDy=0;entryPerimeter=0;" parent="1" source="uyDFtkW-uwmR9LiVv7iG-16" target="uyDFtkW-uwmR9LiVv7iG-26" edge="1">
                    <mxGeometry width="160" relative="1" as="geometry">
                        <mxPoint x="2260" y="-987" as="sourcePoint"/>
                        <mxPoint x="2420" y="-987" as="targetPoint"/>
                    </mxGeometry>
                </mxCell>
                <mxCell id="uyDFtkW-uwmR9LiVv7iG-37" value="Use" style="endArrow=open;endSize=12;dashed=1;html=1;rounded=0;exitX=0.25;exitY=0;exitDx=0;exitDy=0;entryX=1;entryY=0.5;entryDx=0;entryDy=0;" parent="1" source="uyDFtkW-uwmR9LiVv7iG-13" target="uyDFtkW-uwmR9LiVv7iG-24" edge="1">
                    <mxGeometry width="160" relative="1" as="geometry">
                        <mxPoint x="2550" y="-977" as="sourcePoint"/>
                        <mxPoint x="2580" y="-1017" as="targetPoint"/>
                    </mxGeometry>
                </mxCell>
                <mxCell id="uyDFtkW-uwmR9LiVv7iG-38" value="Use" style="endArrow=open;endSize=12;dashed=1;html=1;rounded=0;exitX=0.25;exitY=0;exitDx=0;exitDy=0;entryX=1;entryY=0.5;entryDx=0;entryDy=0;" parent="1" source="uyDFtkW-uwmR9LiVv7iG-19" target="uyDFtkW-uwmR9LiVv7iG-26" edge="1">
                    <mxGeometry width="160" relative="1" as="geometry">
                        <mxPoint x="2380" y="-803" as="sourcePoint"/>
                        <mxPoint x="2540" y="-803" as="targetPoint"/>
                        <Array as="points">
                            <mxPoint x="2586" y="-807"/>
                            <mxPoint x="2490" y="-807"/>
                            <mxPoint x="2490" y="-957"/>
                        </Array>
                    </mxGeometry>
                </mxCell>
                <mxCell id="uyDFtkW-uwmR9LiVv7iG-39" value="Use" style="endArrow=open;endSize=12;dashed=1;html=1;rounded=0;exitX=0.25;exitY=0;exitDx=0;exitDy=0;entryX=0;entryY=0.5;entryDx=0;entryDy=0;" parent="1" source="uyDFtkW-uwmR9LiVv7iG-9" target="uyDFtkW-uwmR9LiVv7iG-26" edge="1">
                    <mxGeometry width="160" relative="1" as="geometry">
                        <mxPoint x="1910" y="-677" as="sourcePoint"/>
                        <mxPoint x="2070" y="-677" as="targetPoint"/>
                        <Array as="points">
                            <mxPoint x="2254" y="-797"/>
                            <mxPoint x="2160" y="-797"/>
                            <mxPoint x="2160" y="-957"/>
                        </Array>
                    </mxGeometry>
                </mxCell>
                <mxCell id="f_yswTRNZCz9jko_wb8A-1" value="MenuOption" style="swimlane;fontStyle=1;align=center;verticalAlign=top;childLayout=stackLayout;horizontal=1;startSize=26;horizontalStack=0;resizeParent=1;resizeParentMax=0;resizeLast=0;collapsible=1;marginBottom=0;" parent="1" vertex="1">
                    <mxGeometry x="1900" y="-1142" width="160" height="154" as="geometry"/>
                </mxCell>
                <mxCell id="f_yswTRNZCz9jko_wb8A-2" value="- id: Long&#10;- title: String&#10;- description: String&#10;- type: int&#10;- price: double&#10;- salad: boolean" style="text;strokeColor=none;fillColor=none;align=left;verticalAlign=top;spacingLeft=4;spacingRight=4;overflow=hidden;rotatable=0;points=[[0,0.5],[1,0.5]];portConstraint=eastwest;" parent="f_yswTRNZCz9jko_wb8A-1" vertex="1">
                    <mxGeometry y="26" width="160" height="94" as="geometry"/>
                </mxCell>
                <mxCell id="f_yswTRNZCz9jko_wb8A-3" value="" style="line;strokeWidth=1;fillColor=none;align=left;verticalAlign=middle;spacingTop=-1;spacingLeft=3;spacingRight=3;rotatable=0;labelPosition=right;points=[];portConstraint=eastwest;" parent="f_yswTRNZCz9jko_wb8A-1" vertex="1">
                    <mxGeometry y="120" width="160" height="8" as="geometry"/>
                </mxCell>
                <mxCell id="f_yswTRNZCz9jko_wb8A-4" value="+ getter / setter" style="text;strokeColor=none;fillColor=none;align=left;verticalAlign=top;spacingLeft=4;spacingRight=4;overflow=hidden;rotatable=0;points=[[0,0.5],[1,0.5]];portConstraint=eastwest;" parent="f_yswTRNZCz9jko_wb8A-1" vertex="1">
                    <mxGeometry y="128" width="160" height="26" as="geometry"/>
                </mxCell>
                <mxCell id="f_yswTRNZCz9jko_wb8A-6" value="" style="endArrow=diamondThin;endFill=1;endSize=24;html=1;rounded=0;exitX=0;exitY=0.5;exitDx=0;exitDy=0;entryX=1;entryY=0.5;entryDx=0;entryDy=0;" parent="1" source="uyDFtkW-uwmR9LiVv7iG-24" target="f_yswTRNZCz9jko_wb8A-2" edge="1">
                    <mxGeometry width="160" relative="1" as="geometry">
                        <mxPoint x="2060" y="-1069" as="sourcePoint"/>
                        <mxPoint x="2220" y="-1069" as="targetPoint"/>
                    </mxGeometry>
                </mxCell>
            </root>
        </mxGraphModel>
    </diagram>
</mxfile>